<svg xmlns="http://www.w3.org/2000/svg" xmlns:xlink="http://www.w3.org/1999/xlink" width="92" zoomAndPan="magnify" viewBox="0 0 69 68.999997" height="92" preserveAspectRatio="xMidYMid meet" version="1.0"><defs><clipPath id="0c5c6889f4"><path d="M 0 0 L 68.957031 0 L 68.957031 68.957031 L 0 68.957031 Z M 0 0 " clip-rule="nonzero"/></clipPath><clipPath id="44dc82ea3e"><path d="M 34.476562 0 C 15.4375 0 0 15.4375 0 34.476562 C 0 53.519531 15.4375 68.957031 34.476562 68.957031 C 53.519531 68.957031 68.957031 53.519531 68.957031 34.476562 C 68.957031 15.4375 53.519531 0 34.476562 0 Z M 34.476562 0 " clip-rule="nonzero"/></clipPath><clipPath id="b55428eba5"><path d="M 4.476562 4.476562 L 64.476562 4.476562 L 64.476562 64.476562 L 4.476562 64.476562 Z M 4.476562 4.476562 " clip-rule="nonzero"/></clipPath></defs><g clip-path="url(#0c5c6889f4)"><g clip-path="url(#44dc82ea3e)"><path fill="#fafaf3" d="M 0 0 L 68.957031 0 L 68.957031 68.957031 L 0 68.957031 Z M 0 0 " fill-opacity="1" fill-rule="nonzero"/></g></g><g clip-path="url(#b55428eba5)"><path fill="#000000" d="M 64.316406 34.238281 C 64.316406 50.757812 50.917969 64.160156 34.398438 64.160156 C 17.878906 64.160156 4.476562 50.757812 4.476562 34.238281 C 4.476562 17.71875 17.878906 4.316406 34.398438 4.316406 C 50.917969 4.316406 64.316406 17.71875 64.316406 34.238281 Z M 6.871094 34.238281 C 6.871094 49.433594 19.199219 61.765625 34.398438 61.765625 C 49.59375 61.765625 61.925781 49.433594 61.925781 34.238281 C 61.925781 19.042969 49.59375 6.710938 34.398438 6.710938 C 19.199219 6.710938 6.871094 19.042969 6.871094 34.238281 Z M 24.796875 35.085938 C 24.324219 34.613281 24.324219 33.863281 24.796875 33.390625 L 38.335938 19.851562 C 38.8125 19.390625 39.558594 19.390625 40.03125 19.851562 L 41.726562 21.546875 C 42.191406 22.007812 42.191406 22.769531 41.726562 23.242188 L 30.71875 34.238281 L 41.726562 45.234375 C 42.191406 45.707031 42.191406 46.46875 41.726562 46.929688 L 40.03125 48.625 C 39.558594 49.085938 38.8125 49.085938 38.335938 48.625 Z M 24.796875 35.085938 " fill-opacity="1" fill-rule="nonzero"/></g></svg>