<svg xmlns="http://www.w3.org/2000/svg" xmlns:xlink="http://www.w3.org/1999/xlink" width="74" zoomAndPan="magnify" viewBox="0 0 55.5 55.499996" height="74" preserveAspectRatio="xMidYMid meet" version="1.0"><defs><clipPath id="1ab9f1791a"><path d="M 0 0 L 54.632812 0 L 54.632812 54.632812 L 0 54.632812 Z M 0 0 " clip-rule="nonzero"/></clipPath><clipPath id="acbf40b6df"><path d="M 27.316406 0 C 12.230469 0 0 12.230469 0 27.316406 C 0 42.402344 12.230469 54.632812 27.316406 54.632812 C 42.402344 54.632812 54.632812 42.402344 54.632812 27.316406 C 54.632812 12.230469 42.402344 0 27.316406 0 Z M 27.316406 0 " clip-rule="nonzero"/></clipPath><clipPath id="778002977d"><path d="M 13.378906 16.0625 L 41.625 16.0625 L 41.625 38.363281 L 13.378906 38.363281 Z M 13.378906 16.0625 " clip-rule="nonzero"/></clipPath></defs><g clip-path="url(#1ab9f1791a)"><g clip-path="url(#acbf40b6df)"><path stroke-linecap="butt" transform="matrix(0.743303, 0, 0, 0.743303, 0.000002, -0.00000198214)" fill="none" stroke-linejoin="miter" d="M 36.750001 0.00000266667 C 16.454203 0.00000266667 -0.00000269069 16.454209 -0.00000269069 36.750007 C -0.00000269069 57.045805 16.454203 73.500011 36.750001 73.500011 C 57.0458 73.500011 73.500006 57.045805 73.500006 36.750007 C 73.500006 16.454209 57.0458 0.00000266667 36.750001 0.00000266667 Z M 36.750001 0.00000266667 " stroke="#000000" stroke-width="16" stroke-opacity="1" stroke-miterlimit="4"/></g></g><g clip-path="url(#778002977d)"><path fill="#000000" d="M 22.929688 16.929688 L 14.0625 25.597656 C 13.621094 26.027344 13.402344 26.589844 13.402344 27.15625 C 13.402344 27.71875 13.621094 28.289062 14.0625 28.71875 L 23.050781 37.5 C 23.933594 38.363281 25.363281 38.363281 26.246094 37.5 C 27.125 36.640625 27.125 35.242188 26.246094 34.378906 L 21.175781 29.421875 L 39.339844 29.421875 C 40.59375 29.421875 41.601562 28.4375 41.601562 27.210938 C 41.601562 25.988281 40.585938 25 39.339844 25 L 21.054688 25 L 26.125 20.042969 C 27.007812 19.183594 27.007812 17.78125 26.125 16.921875 C 25.242188 16.0625 23.8125 16.0625 22.929688 16.929688 Z M 22.929688 16.929688 " fill-opacity="1" fill-rule="nonzero"/></g></svg>