<svg xmlns="http://www.w3.org/2000/svg" xmlns:xlink="http://www.w3.org/1999/xlink" width="34" zoomAndPan="magnify" viewBox="0 0 25.5 25.499999" height="34" preserveAspectRatio="xMidYMid meet" version="1.0"><defs><clipPath id="1204a3f301"><path d="M 5.96875 5.328125 L 19.207031 5.328125 L 19.207031 18.566406 L 5.96875 18.566406 Z M 5.96875 5.328125 " clip-rule="nonzero"/></clipPath><clipPath id="b2c62e6554"><path d="M 8 5.328125 L 16 5.328125 L 16 16 L 8 16 Z M 8 5.328125 " clip-rule="nonzero"/></clipPath><clipPath id="caa2e20236"><path d="M 6 16 L 18 16 L 18 18.566406 L 6 18.566406 Z M 6 16 " clip-rule="nonzero"/></clipPath><clipPath id="5503a09a1c"><path d="M 0.292969 0.0507812 L 24.566406 0.0507812 L 24.566406 24.324219 L 0.292969 24.324219 Z M 0.292969 0.0507812 " clip-rule="nonzero"/></clipPath></defs><g clip-path="url(#1204a3f301)"><path fill="#fadfb5" d="M 12.355469 -0.738281 C 5.359375 -0.738281 -0.34375 4.964844 -0.34375 11.960938 C -0.34375 18.960938 5.359375 24.664062 12.355469 24.664062 C 19.355469 24.664062 25.054688 18.960938 25.054688 11.960938 C 25.054688 4.964844 19.355469 -0.738281 12.355469 -0.738281 Z M 12.355469 22.847656 C 6.347656 22.847656 1.472656 17.96875 1.472656 11.960938 C 1.472656 5.957031 6.347656 1.078125 12.355469 1.078125 C 18.363281 1.078125 23.238281 5.957031 23.238281 11.960938 C 23.238281 17.96875 18.363281 22.847656 12.355469 22.847656 Z M 12.355469 22.847656 " fill-opacity="1" fill-rule="nonzero"/></g><g clip-path="url(#b2c62e6554)"><path fill="#fadfb5" d="M 9.128906 13.625 C 8.710938 13.347656 8.597656 12.789062 8.875 12.367188 C 9.15625 11.949219 9.714844 11.835938 10.132812 12.113281 L 11.441406 12.992188 L 11.441406 6.515625 C 11.441406 6.019531 11.847656 5.613281 12.34375 5.613281 C 12.839844 5.613281 13.246094 6.019531 13.246094 6.515625 L 13.246094 12.980469 L 14.554688 12.101562 C 14.972656 11.824219 15.53125 11.9375 15.808594 12.355469 C 16.089844 12.777344 15.976562 13.335938 15.554688 13.613281 L 12.863281 15.441406 C 12.851562 15.457031 12.839844 15.457031 12.824219 15.457031 C 12.8125 15.46875 12.800781 15.480469 12.789062 15.480469 C 12.75 15.507812 12.710938 15.507812 12.671875 15.53125 C 12.648438 15.542969 12.621094 15.558594 12.597656 15.558594 C 12.519531 15.582031 12.445312 15.59375 12.367188 15.59375 C 12.292969 15.59375 12.203125 15.582031 12.128906 15.558594 C 12.101562 15.542969 12.078125 15.542969 12.050781 15.53125 C 12 15.507812 11.949219 15.492188 11.898438 15.457031 C 11.886719 15.441406 11.875 15.441406 11.859375 15.441406 Z M 9.128906 13.625 " fill-opacity="1" fill-rule="nonzero"/></g><g clip-path="url(#caa2e20236)"><path fill="#fadfb5" d="M 17.804688 17.410156 C 17.804688 17.90625 17.398438 18.3125 16.902344 18.3125 L 7.820312 18.3125 C 7.328125 18.3125 6.921875 17.90625 6.921875 17.410156 C 6.921875 16.914062 7.328125 16.507812 7.820312 16.507812 L 16.890625 16.507812 C 17.398438 16.496094 17.804688 16.902344 17.804688 17.410156 Z M 17.804688 17.410156 " fill-opacity="1" fill-rule="nonzero"/></g><g clip-path="url(#5503a09a1c)"><path fill="#fadfb5" d="M 12.429688 0.0507812 C 5.726562 0.0507812 0.292969 5.480469 0.292969 12.1875 C 0.292969 18.890625 5.726562 24.324219 12.429688 24.324219 C 19.136719 24.324219 24.566406 18.890625 24.566406 12.1875 C 24.566406 5.480469 19.136719 0.0507812 12.429688 0.0507812 Z M 12.429688 21.894531 C 7.066406 21.894531 2.722656 17.550781 2.722656 12.1875 C 2.722656 6.820312 7.066406 2.476562 12.429688 2.476562 C 17.796875 2.476562 22.140625 6.820312 22.140625 12.1875 C 22.140625 17.550781 17.796875 21.894531 12.429688 21.894531 Z M 12.429688 21.894531 " fill-opacity="1" fill-rule="nonzero"/></g></svg>