<svg xmlns="http://www.w3.org/2000/svg" xmlns:xlink="http://www.w3.org/1999/xlink" width="34" zoomAndPan="magnify" viewBox="0 0 25.5 25.499999" height="34" preserveAspectRatio="xMidYMid meet" version="1.0"><defs><clipPath id="54d1ba0be8"><path d="M 0.292969 0.0507812 L 24.566406 0.0507812 L 24.566406 24.324219 L 0.292969 24.324219 Z M 0.292969 0.0507812 " clip-rule="nonzero"/></clipPath><clipPath id="f5484d874a"><path d="M 5.96875 5.328125 L 19.207031 5.328125 L 19.207031 18.566406 L 5.96875 18.566406 Z M 5.96875 5.328125 " clip-rule="nonzero"/></clipPath><clipPath id="540dc7f4cf"><path d="M 8 5.328125 L 17 5.328125 L 17 16 L 8 16 Z M 8 5.328125 " clip-rule="nonzero"/></clipPath><clipPath id="cbb6228e07"><path d="M 7 16 L 19 16 L 19 18.566406 L 7 18.566406 Z M 7 16 " clip-rule="nonzero"/></clipPath></defs><g clip-path="url(#54d1ba0be8)"><path fill="#000000" d="M 12.429688 0.0507812 C 5.726562 0.0507812 0.292969 5.480469 0.292969 12.1875 C 0.292969 18.890625 5.726562 24.324219 12.429688 24.324219 C 19.136719 24.324219 24.566406 18.890625 24.566406 12.1875 C 24.566406 5.480469 19.136719 0.0507812 12.429688 0.0507812 Z M 12.429688 21.894531 C 7.066406 21.894531 2.722656 17.550781 2.722656 12.1875 C 2.722656 6.820312 7.066406 2.476562 12.429688 2.476562 C 17.796875 2.476562 22.140625 6.820312 22.140625 12.1875 C 22.140625 17.550781 17.796875 21.894531 12.429688 21.894531 Z M 12.429688 21.894531 " fill-opacity="1" fill-rule="nonzero"/></g><g clip-path="url(#f5484d874a)"><path fill="#000000" d="M 12.605469 -0.660156 C 5.515625 -0.660156 -0.265625 5.121094 -0.265625 12.214844 C -0.265625 19.304688 5.515625 25.085938 12.605469 25.085938 C 19.699219 25.085938 25.480469 19.304688 25.480469 12.214844 C 25.480469 5.121094 19.699219 -0.660156 12.605469 -0.660156 Z M 12.605469 23.246094 C 6.519531 23.246094 1.574219 18.300781 1.574219 12.214844 C 1.574219 6.125 6.519531 1.183594 12.605469 1.183594 C 18.695312 1.183594 23.640625 6.125 23.640625 12.214844 C 23.640625 18.300781 18.695312 23.246094 12.605469 23.246094 Z M 12.605469 23.246094 " fill-opacity="1" fill-rule="nonzero"/></g><g clip-path="url(#540dc7f4cf)"><path fill="#000000" d="M 9.335938 13.898438 C 8.914062 13.617188 8.796875 13.050781 9.082031 12.625 C 9.363281 12.199219 9.929688 12.085938 10.355469 12.367188 L 11.679688 13.257812 L 11.679688 6.691406 C 11.679688 6.1875 12.09375 5.777344 12.59375 5.777344 C 13.097656 5.777344 13.507812 6.1875 13.507812 6.691406 L 13.507812 13.242188 L 14.835938 12.355469 C 15.257812 12.070312 15.824219 12.1875 16.109375 12.613281 C 16.390625 13.039062 16.277344 13.605469 15.851562 13.886719 L 13.121094 15.742188 C 13.109375 15.753906 13.097656 15.753906 13.082031 15.753906 C 13.070312 15.765625 13.058594 15.78125 13.042969 15.78125 C 13.007812 15.804688 12.96875 15.804688 12.929688 15.832031 C 12.902344 15.84375 12.878906 15.855469 12.851562 15.855469 C 12.773438 15.882812 12.699219 15.894531 12.621094 15.894531 C 12.542969 15.894531 12.453125 15.882812 12.375 15.855469 C 12.351562 15.84375 12.324219 15.84375 12.296875 15.832031 C 12.246094 15.804688 12.195312 15.792969 12.144531 15.753906 C 12.132812 15.742188 12.117188 15.742188 12.105469 15.742188 Z M 9.335938 13.898438 " fill-opacity="1" fill-rule="nonzero"/></g><g clip-path="url(#cbb6228e07)"><path fill="#000000" d="M 18.128906 17.734375 C 18.128906 18.238281 17.71875 18.648438 17.214844 18.648438 L 8.011719 18.648438 C 7.507812 18.648438 7.097656 18.238281 7.097656 17.734375 C 7.097656 17.234375 7.507812 16.820312 8.011719 16.820312 L 17.203125 16.820312 C 17.71875 16.808594 18.128906 17.222656 18.128906 17.734375 Z M 18.128906 17.734375 " fill-opacity="1" fill-rule="nonzero"/></g></svg>