<svg xmlns="http://www.w3.org/2000/svg" xmlns:xlink="http://www.w3.org/1999/xlink" width="192" zoomAndPan="magnify" viewBox="0 0 144 143.999998" height="192" preserveAspectRatio="xMidYMid meet" version="1.0"><defs><clipPath id="d2539d70b6"><path d="M 22.5 0 L 121.5 0 C 133.925781 0 144 10.074219 144 22.5 L 144 121.5 C 144 133.925781 133.925781 144 121.5 144 L 22.5 144 C 10.074219 144 0 133.925781 0 121.5 L 0 22.5 C 0 10.074219 10.074219 0 22.5 0 " clip-rule="nonzero"/></clipPath><clipPath id="05c7164173"><path d="M 22.800781 33.316406 L 121.050781 33.316406 L 121.050781 110.566406 L 22.800781 110.566406 Z M 22.800781 33.316406 " clip-rule="nonzero"/></clipPath></defs><g clip-path="url(#d2539d70b6)"><rect x="-14.4" width="172.8" fill="#000000" y="-14.4" height="172.799997" fill-opacity="1"/></g><g clip-path="url(#05c7164173)"><path fill="#ffffff" d="M 107.222656 40.359375 L 36.625 40.359375 L 69.785156 65.867188 C 71.046875 66.839844 72.804688 66.839844 74.0625 65.867188 Z M 29.816406 43.976562 L 29.816406 103.523438 L 114.03125 103.523438 L 114.03125 43.976562 L 78.34375 71.429688 C 74.558594 74.34375 69.289062 74.34375 65.507812 71.429688 Z M 22.800781 40.359375 C 22.800781 36.484375 25.941406 33.339844 29.816406 33.339844 L 114.03125 33.339844 C 117.90625 33.339844 121.050781 36.484375 121.050781 40.359375 L 121.050781 103.523438 C 121.050781 107.398438 117.90625 110.542969 114.03125 110.542969 L 29.816406 110.542969 C 25.941406 110.542969 22.800781 107.398438 22.800781 103.523438 Z M 22.800781 40.359375 " fill-opacity="1" fill-rule="evenodd"/></g></svg>