<svg xmlns="http://www.w3.org/2000/svg" xmlns:xlink="http://www.w3.org/1999/xlink" width="192" zoomAndPan="magnify" viewBox="0 0 144 143.999998" height="192" preserveAspectRatio="xMidYMid meet" version="1.0"><defs><clipPath id="35a6ee4cff"><path d="M 22.5 0 L 121.5 0 C 133.925781 0 144 10.074219 144 22.5 L 144 121.5 C 144 133.925781 133.925781 144 121.5 144 L 22.5 144 C 10.074219 144 0 133.925781 0 121.5 L 0 22.5 C 0 10.074219 10.074219 0 22.5 0 " clip-rule="nonzero"/></clipPath><clipPath id="9edfff5bb3"><path d="M 22.351562 23.363281 L 121 23.363281 L 121 120.863281 L 22.351562 120.863281 Z M 22.351562 23.363281 " clip-rule="nonzero"/></clipPath></defs><g clip-path="url(#35a6ee4cff)"><rect x="-14.4" width="172.8" fill="#000000" y="-14.4" height="172.799997" fill-opacity="1"/></g><g clip-path="url(#9edfff5bb3)"><path fill="#fafaf3" d="M 71.703125 23.363281 C 44.414062 23.363281 22.351562 45.707031 22.351562 73.347656 C 22.351562 95.445312 36.484375 114.148438 56.097656 120.769531 C 58.546875 121.265625 59.445312 119.691406 59.445312 118.371094 C 59.445312 117.210938 59.363281 113.238281 59.363281 109.101562 C 45.636719 112.082031 42.777344 103.140625 42.777344 103.140625 C 40.570312 97.347656 37.300781 95.859375 37.300781 95.859375 C 32.808594 92.796875 37.628906 92.796875 37.628906 92.796875 C 42.613281 93.128906 45.230469 97.929688 45.230469 97.929688 C 49.640625 105.542969 56.75 103.390625 59.609375 102.066406 C 60.019531 98.839844 61.324219 96.605469 62.714844 95.363281 C 51.765625 94.203125 40.246094 89.902344 40.246094 70.699219 C 40.246094 65.238281 42.203125 60.769531 45.308594 57.292969 C 44.820312 56.054688 43.105469 50.921875 45.800781 44.050781 C 45.800781 44.050781 49.96875 42.726562 59.363281 49.183594 C 63.402344 48.085938 67.515625 47.53125 71.703125 47.527344 C 75.871094 47.527344 80.117188 48.109375 84.039062 49.183594 C 93.4375 42.726562 97.605469 44.050781 97.605469 44.050781 C 100.300781 50.921875 98.582031 56.054688 98.09375 57.292969 C 101.28125 60.769531 103.160156 65.238281 103.160156 70.699219 C 103.160156 89.902344 91.640625 94.121094 80.609375 95.363281 C 82.40625 96.933594 83.957031 99.914062 83.957031 104.632812 C 83.957031 111.335938 83.878906 116.714844 83.878906 118.367188 C 83.878906 119.691406 84.777344 121.265625 87.226562 120.769531 C 106.835938 114.148438 120.972656 95.445312 120.972656 73.347656 C 121.054688 45.707031 98.910156 23.363281 71.703125 23.363281 Z M 71.703125 23.363281 " fill-opacity="1" fill-rule="evenodd"/></g></svg>