<?xml version="1.0" standalone="no"?>
<!DOCTYPE svg PUBLIC "-//W3C//DTD SVG 1.1//EN" "http://www.w3.org/Graphics/SVG/1.1/DTD/svg11.dtd">
<svg aria-hidden="true" focusable="false" class="h-3 w-auto m-auto" role="img" width="101" height="24" viewBox="0 0 101 24" xmlns="http://www.w3.org/2000/svg"><path d="M7.22,12.05l3.61-3.61-3.61-3.61-3.61,3.61-3.61,3.61,7.22,7.22,3.61-3.61-3.61-3.61ZM14.43,4.84l-3.61,3.61,3.61,3.61-3.61,3.61,3.61,3.61,7.22-7.22-7.22-7.22Z" fill="#00caff"/>
<path d="M31.11,0h-5.1v23.74h15.31v-5.1h-10.21V0ZM58.24,19.52c-.15-.24-.23-.58-.23-1.02v-5.1c0-1.45-.31-2.7-.92-3.75s-1.49-1.86-2.63-2.42c-1.14-.56-2.5-.84-4.08-.84-1.45,0-2.72.25-3.8.74-1.09.49-1.96,1.2-2.62,2.11-.66.91-1.05,1.99-1.19,3.24h4.64c.04-.75.35-1.34.91-1.78.56-.44,1.25-.66,2.06-.66s1.51.19,2.02.56c.52.37.77.82.77,1.35,0,.35-.1.63-.31.84s-.51.35-.91.41l-3.16.43c-1.95.26-3.45.85-4.48,1.76-1.03.91-1.55,2.12-1.55,3.64,0,.92.26,1.77.77,2.53.52.77,1.23,1.37,2.14,1.79.91.43,1.95.64,3.11.64,1.25,0,2.33-.2,3.24-.59.91-.4,1.54-.94,1.89-1.65.13.7.5,1.25,1.1,1.63s1.34.58,2.22.58c.75,0,1.52-.08,2.34-.23v-3.92c-.2.02-.4.04-.59.07-.35,0-.6-.12-.76-.36h0ZM53.33,16.53c0,1.1-.34,2.02-1,2.78s-1.56,1.14-2.68,1.14c-.66,0-1.18-.16-1.56-.48-.38-.32-.58-.72-.58-1.2,0-.53.18-.97.54-1.32s.88-.57,1.56-.66l3.72-.63v.36h0ZM67.19,1.68h-4.84v4.97h-2.77v3.98h2.77v7.37c0,1.95.59,3.44,1.78,4.46s2.74,1.53,4.67,1.53c.83,0,1.57-.08,2.21-.23v-4.12c-.57.15-1.08.23-1.51.23-.68,0-1.23-.22-1.66-.66-.43-.44-.64-1.03-.64-1.78v-6.81h3.82v-3.98h-3.82V1.68h0ZM85.03,7.64c-1.3-.83-2.89-1.25-4.77-1.25s-3.4.42-4.67,1.27c-1.27.85-2.21,1.94-2.81,3.28-.6,1.34-.91,2.75-.91,4.25s.33,2.91.99,4.25,1.65,2.44,2.96,3.29,2.91,1.28,4.77,1.28c1.47,0,2.79-.24,3.95-.71,1.16-.47,2.11-1.16,2.85-2.06.74-.9,1.19-1.96,1.37-3.19h-4.81c-.18.61-.55,1.09-1.14,1.43-.58.34-1.28.51-2.09.51-1.3,0-2.32-.42-3.08-1.27-.52-.58-.86-1.32-1.02-2.22h12.13c.04-.59.07-1.14.07-1.65.02-1.4-.28-2.75-.91-4.03-.63-1.28-1.59-2.34-2.88-3.18h0ZM76.73,13c.06-.26.13-.5.22-.72.3-.77.72-1.35,1.28-1.75s1.23-.59,2.02-.59c.68,0,1.26.13,1.75.4.48.26.87.63,1.15,1.09.29.46.45.99.49,1.58h-6.92ZM100.41,6.39c-1.03,0-2.04.31-3.01.92-.98.61-1.66,1.38-2.06,2.3v-2.96h-4.81v17.09h4.81v-6.19c0-1.54.21-2.8.63-3.8.42-1,.96-1.72,1.63-2.17s1.41-.67,2.22-.67c.53,0,1.05.05,1.58.16v-4.61c-.24-.04-.57-.07-.99-.07h0Z" fill="#000000"/>
</svg>