<svg xmlns="http://www.w3.org/2000/svg" xmlns:xlink="http://www.w3.org/1999/xlink" width="192" zoomAndPan="magnify" viewBox="0 0 144 143.999998" height="192" preserveAspectRatio="xMidYMid meet" version="1.0"><defs><clipPath id="2ba2f24214"><path d="M 22.5 0 L 121.5 0 C 133.925781 0 144 10.074219 144 22.5 L 144 121.5 C 144 133.925781 133.925781 144 121.5 144 L 22.5 144 C 10.074219 144 0 133.925781 0 121.5 L 0 22.5 C 0 10.074219 10.074219 0 22.5 0 " clip-rule="nonzero"/></clipPath><clipPath id="0fc531a650"><path d="M 28.800781 28.800781 L 115 28.800781 L 115 115.050781 L 28.800781 115.050781 Z M 28.800781 28.800781 " clip-rule="nonzero"/></clipPath></defs><g clip-path="url(#2ba2f24214)"><rect x="-14.4" width="172.8" fill="#000000" y="-14.4" height="172.799997" fill-opacity="1"/></g><g clip-path="url(#0fc531a650)"><path fill="#ffffff" d="M 107.84375 28.800781 L 36.046875 28.800781 C 32.078125 28.800781 28.886719 32.035156 28.886719 35.960938 L 28.886719 107.886719 C 28.886719 111.855469 32.121094 115.050781 36.046875 115.050781 L 107.800781 115.050781 C 111.769531 115.050781 114.964844 111.8125 114.964844 107.886719 L 114.964844 35.960938 C 115.007812 32.035156 111.8125 28.800781 107.84375 28.800781 Z M 54.386719 99.949219 L 41.65625 99.949219 L 41.65625 61.722656 L 54.386719 61.722656 Z M 48 57.105469 C 43.988281 57.105469 40.75 53.867188 40.75 49.855469 C 40.75 45.84375 43.988281 42.605469 48 42.605469 C 52.011719 42.605469 55.25 45.84375 55.25 49.855469 C 55.25 53.867188 52.011719 57.105469 48 57.105469 Z M 102.277344 99.949219 L 89.507812 99.949219 L 89.207031 77.253906 C 89.207031 77.253906 89.507812 71.214844 82.90625 71.257812 C 76.304688 71.300781 75.398438 77.253906 75.398438 77.253906 L 75.398438 99.949219 L 62.539062 99.949219 L 62.539062 61.722656 L 74.878906 61.722656 L 74.878906 66.984375 C 74.878906 66.984375 75.398438 65.257812 78.246094 63.230469 C 81.09375 61.203125 85.796875 60.773438 87.824219 60.859375 C 89.851562 60.945312 92.613281 60.597656 97.230469 63.792969 C 102.191406 67.199219 102.320312 76.132812 102.320312 76.132812 Z M 102.277344 99.949219 " fill-opacity="1" fill-rule="nonzero"/></g></svg>