<svg xmlns="http://www.w3.org/2000/svg" xmlns:xlink="http://www.w3.org/1999/xlink" width="202" zoomAndPan="magnify" viewBox="0 0 151.5 152.249993" height="203" preserveAspectRatio="xMidYMid meet" version="1.0"><defs><g/><clipPath id="0fc5a36266"><path d="M 0.464844 0.699219 L 150.878906 0.699219 L 150.878906 151.265625 L 0.464844 151.265625 Z M 0.464844 0.699219 " clip-rule="nonzero"/></clipPath><clipPath id="a678882525"><path d="M 75.75 0.699219 C 34.171875 0.699219 0.464844 34.402344 0.464844 75.980469 C 0.464844 117.558594 34.171875 151.265625 75.75 151.265625 C 117.328125 151.265625 151.035156 117.558594 151.035156 75.980469 C 151.035156 34.402344 117.328125 0.699219 75.75 0.699219 " clip-rule="nonzero"/></clipPath><clipPath id="efa4a30edb"><path d="M 0.464844 0.699219 L 150.878906 0.699219 L 150.878906 151.203125 L 0.464844 151.203125 Z M 0.464844 0.699219 " clip-rule="nonzero"/></clipPath><clipPath id="44170bcab6"><path d="M 75.71875 0.699219 C 34.160156 0.699219 0.464844 34.390625 0.464844 75.953125 C 0.464844 117.511719 34.160156 151.203125 75.71875 151.203125 C 117.28125 151.203125 150.972656 117.511719 150.972656 75.953125 C 150.972656 34.390625 117.28125 0.699219 75.71875 0.699219 " clip-rule="nonzero"/></clipPath><clipPath id="1bc7904ea7"><path d="M 69.476562 69.707031 L 82.023438 69.707031 L 82.023438 82.253906 L 69.476562 82.253906 Z M 69.476562 69.707031 " clip-rule="nonzero"/></clipPath><clipPath id="74bd7abce5"><path d="M 75.75 69.707031 C 72.285156 69.707031 69.476562 72.515625 69.476562 75.980469 C 69.476562 79.445312 72.285156 82.253906 75.75 82.253906 C 79.214844 82.253906 82.023438 79.445312 82.023438 75.980469 C 82.023438 72.515625 79.214844 69.707031 75.75 69.707031 " clip-rule="nonzero"/></clipPath></defs><g clip-path="url(#0fc5a36266)"><g clip-path="url(#a678882525)"><path fill="#ef86a6" d="M 0.464844 0.699219 L 151.035156 0.699219 L 151.035156 151.265625 L 0.464844 151.265625 Z M 0.464844 0.699219 " fill-opacity="1" fill-rule="nonzero"/></g></g><g clip-path="url(#efa4a30edb)"><g clip-path="url(#44170bcab6)"><path stroke-linecap="butt" transform="matrix(0.748496, 0, 0, 0.748496, 0.466589, 0.698191)" fill="none" stroke-linejoin="miter" d="M 100.537878 0.00137326 C 45.015049 0.00137326 -0.00233219 45.013536 -0.00233219 100.541583 C -0.00233219 156.064412 45.015049 201.076575 100.537878 201.076575 C 156.065925 201.076575 201.078088 156.064412 201.078088 100.541583 C 201.078088 45.013536 156.065925 0.00137326 100.537878 0.00137326 " stroke="#000000" stroke-width="18" stroke-opacity="1" stroke-miterlimit="4"/></g></g><g clip-path="url(#1bc7904ea7)"><g clip-path="url(#74bd7abce5)"><path fill="#000000" d="M 69.476562 69.707031 L 82.023438 69.707031 L 82.023438 82.253906 L 69.476562 82.253906 Z M 69.476562 69.707031 " fill-opacity="1" fill-rule="nonzero"/></g></g><g fill="#000000" fill-opacity="1"><g transform="translate(39.518743, 100.031782)"><g><path d="M -0.359375 -0.785156 L -1.933594 -4.253906 C -3.511719 -7.722656 -6.011719 -8.722656 -9.601562 -7.089844 L -21.902344 -1.5 L -20.28125 2.066406 L -7.980469 -3.523438 C -7 -3.972656 -5.863281 -3.566406 -5.40625 -2.558594 L -3.875 0.8125 Z M -0.359375 -0.785156 "/></g></g></g><g fill="#000000" fill-opacity="1"><g transform="translate(34.364432, 90.233777)"><g><path d="M -0.0507812 -0.429688 L -0.550781 -4.777344 L -2.703125 -5.292969 L -3.433594 -11.652344 L -1.457031 -12.667969 L -1.953125 -16.988281 L -20.914062 -6.625 L -20.867188 -6.222656 Z M -6.460938 -6.273438 L -11.65625 -7.496094 L -6.867188 -9.816406 Z M -6.460938 -6.273438 "/></g></g></g><g fill="#000000" fill-opacity="1"><g transform="translate(31.727234, 74.6307)"><g><path d="M -7.4375 -13.789062 L -17.769531 -8.972656 L -18.132812 -7.78125 L 0.628906 -2.066406 L 1.769531 -5.816406 L -8.539062 -8.957031 L -2.136719 -12.175781 L -5.660156 -18.414062 L 4.644531 -15.246094 L 5.785156 -18.996094 L -12.976562 -24.710938 L -13.332031 -23.546875 Z M -7.4375 -13.789062 "/></g></g></g><g fill="#000000" fill-opacity="1"><g transform="translate(37.993218, 55.509069)"><g><path d="M 7.496094 -9.574219 L 4.453125 -11.953125 L 0.671875 -7.125 L -2.371094 -9.507812 L 0.761719 -13.507812 L -2.28125 -15.886719 L -5.410156 -11.886719 L -8.453125 -14.269531 L -4.875 -18.84375 L -7.914062 -21.226562 L -13.878906 -13.609375 L 1.332031 -1.703125 Z M 7.496094 -9.574219 "/></g></g></g><g fill="#000000" fill-opacity="1"><g transform="translate(45.277384, 45.781042)"><g><path d="M 0.316406 -1.75 C 3.234375 -2.167969 5.269531 -3.449219 6.105469 -4.140625 C 8.945312 -6.394531 9.324219 -9.683594 7.460938 -12.300781 C 5.679688 -14.8125 2.5625 -14.71875 -0.523438 -13.882812 C -1.644531 -13.546875 -2.699219 -13.398438 -3.414062 -14.214844 C -4.105469 -15.050781 -4.175781 -16.222656 -3.101562 -17.089844 C -2.632812 -17.453125 -1.65625 -18.179688 0.582031 -18.714844 L -1.183594 -22.035156 C -3.707031 -21.296875 -4.789062 -20.53125 -5.570312 -19.90625 C -8.097656 -17.910156 -8.484375 -14.585938 -6.605469 -11.945312 C -4.726562 -9.304688 -1.632812 -9.613281 1.476562 -10.464844 C 2.574219 -10.78125 3.539062 -10.871094 4.25 -10.015625 C 4.945312 -9.21875 4.625 -7.996094 3.746094 -7.273438 C 3.066406 -6.6875 1.074219 -5.339844 -1.636719 -5.332031 Z M 0.316406 -1.75 "/></g></g></g><g fill="#000000" fill-opacity="1"><g transform="translate(56.053136, 38.406581)"><g/></g></g><g fill="#000000" fill-opacity="1"><g transform="translate(61.887986, 35.450226)"><g><path d="M 1.050781 -1.433594 C 3.855469 -0.527344 6.25 -0.789062 7.304688 -1.046875 C 10.84375 -1.824219 12.628906 -4.609375 12.101562 -7.78125 C 11.597656 -10.820312 8.757812 -12.101562 5.617188 -12.707031 C 4.464844 -12.898438 3.449219 -13.222656 3.167969 -14.273438 C 2.910156 -15.324219 3.359375 -16.414062 4.707031 -16.71875 C 5.289062 -16.839844 6.484375 -17.066406 8.730469 -16.5625 L 8.601562 -20.320312 C 6.007812 -20.765625 4.703125 -20.550781 3.722656 -20.332031 C 0.578125 -19.648438 -1.226562 -16.828125 -0.699219 -13.632812 C -0.167969 -10.433594 2.75 -9.355469 5.914062 -8.757812 C 7.042969 -8.5625 7.949219 -8.21875 8.210938 -7.136719 C 8.488281 -6.117188 7.660156 -5.15625 6.554688 -4.890625 C 5.691406 -4.667969 3.308594 -4.328125 0.867188 -5.511719 Z M 1.050781 -1.433594 "/></g></g></g><g fill="#000000" fill-opacity="1"><g transform="translate(74.865274, 33.592344)"><g><path d="M 3.183594 -4 C 0.269531 -4.152344 0.0429688 0.191406 2.957031 0.34375 C 5.84375 0.492188 6.152344 -3.847656 3.183594 -4 Z M 3.183594 -4 "/></g></g></g><g fill="#000000" fill-opacity="1"><g transform="translate(80.660662, 33.793222)"><g/></g></g><g fill="#000000" fill-opacity="1"><g transform="translate(87.118289, 34.393771)"><g><path d="M 19.441406 -7.136719 L 21.570312 -10.523438 C 20.742188 -11.484375 19.679688 -12.265625 18.460938 -12.847656 C 6.667969 -18.496094 -1.828125 -0.8125 9.992188 4.84375 C 11.210938 5.425781 12.886719 5.867188 14.167969 5.941406 L 15.429688 2.113281 C 14.609375 2.140625 13.207031 2.007812 11.695312 1.285156 C 4.800781 -2.015625 9.882812 -12.640625 16.78125 -9.339844 C 18.292969 -8.617188 18.945312 -7.792969 19.441406 -7.136719 Z M 19.441406 -7.136719 "/></g></g></g><g fill="#000000" fill-opacity="1"><g transform="translate(100.442485, 40.276475)"><g><path d="M 10.925781 11.230469 L 24.773438 -2.242188 L 22.078125 -5.007812 L 16.539062 0.378906 L 12.507812 -3.765625 L 18.046875 -9.152344 L 15.351562 -11.921875 L 1.507812 1.550781 L 4.203125 4.316406 L 9.738281 -1.070312 L 13.769531 3.074219 L 8.234375 8.460938 Z M 10.925781 11.230469 "/></g></g></g><g fill="#000000" fill-opacity="1"><g transform="translate(111.904946, 51.534754)"><g><path d="M 12.433594 12.136719 L 24.027344 7.238281 L 22.535156 3.703125 L 10.964844 8.59375 C 7.230469 10.171875 4.792969 4.398438 8.523438 2.820312 L 20.097656 -2.070312 L 18.59375 -5.628906 L 6.996094 -0.726562 C -1.464844 2.847656 3.972656 15.714844 12.433594 12.136719 Z M 12.433594 12.136719 "/></g></g></g><g fill="#000000" fill-opacity="1"><g transform="translate(118.657531, 66.380404)"><g><path d="M 10.605469 5.855469 L -0.152344 15.808594 L -0.136719 16.835938 L 19.554688 16.523438 L 19.492188 12.632812 L 8.578125 12.804688 L 19.769531 2.875 L 19.753906 1.847656 L 0.0351562 2.160156 L 0.0976562 6.023438 Z M 10.605469 5.855469 "/></g></g></g><g fill="#000000" fill-opacity="1"><g transform="translate(119.208592, 83.536697)"><g><path d="M -4.691406 15.449219 L 3.222656 18.503906 L 4.632812 14.851562 L -0.785156 12.757812 C -0.710938 12.410156 -0.625 12.039062 -0.496094 11.710938 C 2.1875 4.753906 13.078125 8.582031 10.515625 15.964844 C 9.828125 17.898438 8.976562 18.902344 8.402344 19.492188 L 11.890625 21.332031 C 12.117188 21.042969 13.417969 19.546875 14.171875 17.375 C 18.542969 4.699219 0.492188 -1.578125 -4.101562 10.320312 C -4.761719 12.03125 -4.9375 13.761719 -4.691406 15.449219 Z M -4.691406 15.449219 "/></g></g></g></svg>