<svg xmlns="http://www.w3.org/2000/svg" xmlns:xlink="http://www.w3.org/1999/xlink" width="160" zoomAndPan="magnify" viewBox="0 0 120 119.999999" height="160" preserveAspectRatio="xMidYMid meet" version="1.0"><defs><g/><clipPath id="f95ded94cc"><path d="M 60 0 C 26.863281 0 0 26.863281 0 60 C 0 93.136719 26.863281 120 60 120 C 93.136719 120 120 93.136719 120 60 C 120 26.863281 93.136719 0 60 0 " clip-rule="nonzero"/></clipPath><clipPath id="9da161729a"><path d="M 54 54 L 66 54 L 66 66 L 54 66 Z M 54 54 " clip-rule="nonzero"/></clipPath><clipPath id="bb339a46ef"><path d="M 60 54 C 56.6875 54 54 56.6875 54 60 C 54 63.3125 56.6875 66 60 66 C 63.3125 66 66 63.3125 66 60 C 66 56.6875 63.3125 54 60 54 " clip-rule="nonzero"/></clipPath></defs><g clip-path="url(#f95ded94cc)"><path stroke-linecap="butt" transform="matrix(0.75, 0, 0, 0.75, 0.00000075, 0.000002)" fill="none" stroke-linejoin="miter" d="M 80.000003 -0.00000266667 C 35.817709 -0.00000266667 -0.000001 35.817708 -0.000001 80.000002 C -0.000001 124.182296 35.817709 160.000006 80.000003 160.000006 C 124.182297 160.000006 160.000008 124.182296 160.000008 80.000002 C 160.000008 35.817708 124.182297 -0.00000266667 80.000003 -0.00000266667 " stroke="#000000" stroke-width="14" stroke-opacity="1" stroke-miterlimit="4"/></g><g clip-path="url(#9da161729a)"><g clip-path="url(#bb339a46ef)"><path fill="#000000" d="M 54 54 L 66 54 L 66 66 L 54 66 Z M 54 54 " fill-opacity="1" fill-rule="nonzero"/></g></g><g fill="#000000" fill-opacity="1"><g transform="translate(30.960883, 82.110677)"><g><path d="M -0.285156 -0.628906 L -1.539062 -3.390625 C -2.796875 -6.15625 -4.789062 -6.953125 -7.652344 -5.652344 L -17.453125 -1.199219 L -16.160156 1.644531 L -6.359375 -2.808594 C -5.578125 -3.164062 -4.671875 -2.84375 -4.308594 -2.039062 L -3.089844 0.644531 Z M -0.285156 -0.628906 "/></g></g></g><g fill="#000000" fill-opacity="1"><g transform="translate(26.863966, 74.343277)"><g><path d="M -0.0390625 -0.34375 L -0.4375 -3.808594 L -2.152344 -4.21875 L -2.734375 -9.285156 L -1.160156 -10.09375 L -1.554688 -13.539062 L -16.664062 -5.28125 L -16.628906 -4.960938 Z M -5.148438 -5 L -9.289062 -5.976562 L -5.472656 -7.824219 Z M -5.148438 -5 "/></g></g></g><g fill="#000000" fill-opacity="1"><g transform="translate(24.756092, 61.963435)"><g><path d="M -5.925781 -10.988281 L -14.160156 -7.152344 L -14.449219 -6.203125 L 0.503906 -1.648438 L 1.410156 -4.632812 L -6.804688 -7.136719 L -1.703125 -9.703125 L -4.507812 -14.675781 L 3.703125 -12.152344 L 4.613281 -15.136719 L -10.339844 -19.691406 L -10.621094 -18.765625 Z M -5.925781 -10.988281 "/></g></g></g><g fill="#000000" fill-opacity="1"><g transform="translate(29.728726, 46.774381)"><g><path d="M 5.972656 -7.628906 L 3.546875 -9.527344 L 0.535156 -5.679688 L -1.886719 -7.578125 L 0.605469 -10.761719 L -1.816406 -12.660156 L -4.3125 -9.472656 L -6.734375 -11.371094 L -3.882812 -15.015625 L -6.304688 -16.914062 L -11.058594 -10.847656 L 1.0625 -1.355469 Z M 5.972656 -7.628906 "/></g></g></g><g fill="#000000" fill-opacity="1"><g transform="translate(35.503444, 39.047395)"><g><path d="M 0.25 -1.394531 C 2.578125 -1.726562 4.199219 -2.75 4.863281 -3.300781 C 7.128906 -5.09375 7.433594 -7.714844 5.949219 -9.804688 C 4.523438 -11.804688 2.042969 -11.730469 -0.417969 -11.0625 C -1.3125 -10.796875 -2.148438 -10.675781 -2.71875 -11.328125 C -3.269531 -11.992188 -3.328125 -12.929688 -2.472656 -13.617188 C -2.097656 -13.910156 -1.320312 -14.488281 0.464844 -14.914062 L -0.941406 -17.558594 C -2.953125 -16.972656 -3.8125 -16.359375 -4.4375 -15.863281 C -6.453125 -14.273438 -6.761719 -11.625 -5.261719 -9.519531 C -3.765625 -7.414062 -1.300781 -7.660156 1.175781 -8.339844 C 2.054688 -8.59375 2.820312 -8.664062 3.386719 -7.980469 C 3.941406 -7.347656 3.683594 -6.371094 2.984375 -5.796875 C 2.445312 -5.332031 0.859375 -4.253906 -1.304688 -4.25 Z M 0.25 -1.394531 "/></g></g></g><g fill="#000000" fill-opacity="1"><g transform="translate(44.063406, 33.187269)"><g/></g></g><g fill="#000000" fill-opacity="1"><g transform="translate(48.682454, 30.838925)"><g><path d="M 0.835938 -1.140625 C 3.074219 -0.421875 4.980469 -0.628906 5.820312 -0.832031 C 8.640625 -1.453125 10.0625 -3.675781 9.644531 -6.203125 C 9.242188 -8.625 6.980469 -9.644531 4.476562 -10.125 C 3.558594 -10.277344 2.75 -10.539062 2.523438 -11.375 C 2.320312 -12.210938 2.679688 -13.078125 3.75 -13.320312 C 4.214844 -13.421875 5.167969 -13.601562 6.957031 -13.199219 L 6.855469 -16.191406 C 4.789062 -16.550781 3.746094 -16.375 2.96875 -16.203125 C 0.460938 -15.65625 -0.976562 -13.410156 -0.554688 -10.863281 C -0.132812 -8.3125 2.191406 -7.457031 4.714844 -6.980469 C 5.613281 -6.820312 6.335938 -6.546875 6.542969 -5.6875 C 6.765625 -4.875 6.105469 -4.109375 5.222656 -3.898438 C 4.535156 -3.71875 2.636719 -3.449219 0.691406 -4.390625 Z M 0.835938 -1.140625 "/></g></g></g><g fill="#000000" fill-opacity="1"><g transform="translate(58.994126, 29.359998)"><g><path d="M 2.535156 -3.1875 C 0.214844 -3.308594 0.0351562 0.152344 2.355469 0.273438 C 4.65625 0.390625 4.902344 -3.066406 2.535156 -3.1875 Z M 2.535156 -3.1875 "/></g></g></g><g fill="#000000" fill-opacity="1"><g transform="translate(63.592102, 29.516814)"><g/></g></g><g fill="#000000" fill-opacity="1"><g transform="translate(68.704948, 29.986486)"><g><path d="M 15.492188 -5.6875 L 17.1875 -8.386719 C 16.53125 -9.152344 15.683594 -9.773438 14.710938 -10.238281 C 5.3125 -14.738281 -1.457031 -0.648438 7.960938 3.859375 C 8.933594 4.324219 10.269531 4.675781 11.289062 4.734375 L 12.296875 1.683594 C 11.644531 1.707031 10.523438 1.601562 9.320312 1.023438 C 3.824219 -1.605469 7.875 -10.074219 13.371094 -7.441406 C 14.578125 -6.867188 15.097656 -6.210938 15.492188 -5.6875 Z M 15.492188 -5.6875 "/></g></g></g><g fill="#000000" fill-opacity="1"><g transform="translate(79.283309, 34.644802)"><g><path d="M 8.707031 8.949219 L 19.742188 -1.785156 L 17.59375 -3.992188 L 13.179688 0.300781 L 9.96875 -3 L 14.378906 -7.292969 L 12.234375 -9.5 L 1.203125 1.234375 L 3.347656 3.441406 L 7.761719 -0.851562 L 10.972656 2.449219 L 6.5625 6.742188 Z M 8.707031 8.949219 "/></g></g></g><g fill="#000000" fill-opacity="1"><g transform="translate(88.389791, 43.572478)"><g><path d="M 9.910156 9.671875 L 19.148438 5.765625 L 17.960938 2.949219 L 8.738281 6.847656 C 5.761719 8.105469 3.820312 3.503906 6.792969 2.246094 L 16.015625 -1.648438 L 14.816406 -4.484375 L 5.574219 -0.578125 C -1.167969 2.269531 3.167969 12.523438 9.910156 9.671875 Z M 9.910156 9.671875 "/></g></g></g><g fill="#000000" fill-opacity="1"><g transform="translate(93.764282, 55.346791)"><g><path d="M 8.449219 4.667969 L -0.121094 12.597656 L -0.109375 13.417969 L 15.585938 13.164062 L 15.535156 10.066406 L 6.839844 10.203125 L 15.753906 2.289062 L 15.742188 1.46875 L 0.0273438 1.722656 L 0.078125 4.800781 Z M 8.449219 4.667969 "/></g></g></g><g fill="#000000" fill-opacity="1"><g transform="translate(94.216211, 68.965752)"><g><path d="M -3.738281 12.3125 L 2.570312 14.746094 L 3.695312 11.832031 L -0.625 10.167969 C -0.5625 9.890625 -0.496094 9.59375 -0.394531 9.332031 C 1.746094 3.789062 10.421875 6.839844 8.382812 12.722656 C 7.832031 14.261719 7.15625 15.0625 6.695312 15.53125 L 9.476562 16.996094 C 9.660156 16.765625 10.695312 15.574219 11.292969 13.84375 C 14.777344 3.742188 0.394531 -1.257812 -3.265625 8.222656 C -3.792969 9.589844 -3.933594 10.964844 -3.738281 12.3125 Z M -3.738281 12.3125 "/></g></g></g></svg>