<svg enable-background="new 0 0 50.583 70.417" height="370.479287" viewBox="0 0 50.583 70.417" width="269.920623" xmlns="http://www.w3.org/2000/svg"><path d="m-101.476.477h252.049v85.26h-252.049z" fill="none"/><path d="m-101.476.477h252.049v85.26h-252.049z" fill="none"/><path d="m-210.671-258.639h471.24v609.84h-471.24z" fill="none"/><path d="m.43.477h49.791v69.657h-49.791z" fill="none"/><path d="m.435.46h49.803v69.67h-49.803z" fill="none"/><path d="m48.482 2.308v35.02c.056 18.159-12.965 27.388-23.238 31.278-10.252-3.891-23.307-13.12-23.285-31.279v-35.019z" fill="#fff"/><path d="m25.244 31.829c1.302.002 5.379.856 6.746.878 1.338-.021 4.126-.865 5.867-.831 1.682.049 6.328.81 7.438.831 1.007-.021 2.887-.249 3.881-.6v-6.007c-.994.316-2.874.544-3.881.555-1.109-.011-5.756-.772-7.438-.832-1.741-.024-4.529.821-5.867.832-1.367-.011-5.444-.866-6.746-.878-1.317.012-5.395.867-6.744.878-1.354-.011-4.142-.856-5.869-.832-1.697.06-6.343.821-7.438.832-1.021-.011-2.839-.213-3.834-.555v6.052c.995.332 2.813.533 3.834.555 1.095-.021 5.741-.782 7.438-.831 1.727-.034 4.515.81 5.869.831 1.349-.021 5.427-.876 6.744-.878" fill="#004685"/><path d="m25.244 42.502c1.302.018 5.379.873 6.746.877 1.338-.004 4.126-.848 5.867-.785 1.682.021 6.328.781 7.438.785.857-.004 2.521-.21 3.419-.416.61-1.564.456-6.198.462-6.19-1.02.33-2.874.562-3.881.555-1.109.007-5.756-.754-7.438-.785-1.741-.053-4.529.792-5.867.785-1.367.007-5.444-.849-6.746-.831-1.317-.018-5.395.838-6.744.831-1.354.007-4.142-.838-5.869-.785-1.697.031-6.343.792-7.438.785-1.021.007-2.814-.166-3.834-.508.007.004-.275 2.09.462 6.19.898.217 2.499.365 3.372.369 1.095-.004 5.741-.765 7.438-.785 1.727-.063 4.515.781 5.869.785 1.349-.004 5.427-.859 6.744-.877" fill="#004685"/><path d="m25.244 53.081c1.302.001 5.379.856 6.746.878 1.338-.021 4.126-.843 5.867-.831 1.656.026 5.108.552 6.93.739 1.117-1.816 2.068-3.822 2.771-6.006-.525.058-1.549.06-2.264.045-1.109-.047-5.756-.771-7.438-.831-1.741-.024-4.529.821-5.867.831-1.367-.01-5.444-.865-6.746-.877-1.317.012-5.395.867-6.744.877-1.354-.01-4.142-.855-5.869-.831-1.697.06-6.343.821-7.438.831-.513-.01-1.636-.023-2.171-.091.712 2.192 1.662 4.198 2.773 6.052 1.828-.225 5.514-.7 6.836-.739 1.727-.035 4.515.81 5.869.831 1.35-.021 5.428-.877 6.745-.878" fill="#004685"/><path d="m1.959 2.308h46.523v19.358h-46.523z" fill="#004685"/><path d="m1.959 2.308h46.523v19.357h-46.523z" fill="none" stroke="#b19672" stroke-miterlimit="3.864" stroke-width=".203"/><path d="m1.22 22.349h47.725" fill="none" stroke="#b19672" stroke-miterlimit="3.864" stroke-width="1.618"/><path d="m25.522 69.353c11.072-3.771 23.775-14.605 23.792-32.063v-35.713h-47.955v35.712c.02 17.458 13.064 28.293 24.163 32.064z" fill="none" stroke="#b19672" stroke-miterlimit="3.864" stroke-width="1.577"/><path d="m8.661 19.85c1.165.501 4.265.461 4.251.463.13-.006 3.943-.31 4.112-.37.013.005 4.292-.351 4.85-.323.215.01.396.146.416.323.029.26.337.657 1.017.784.007.02 2.599.13 3.141.048.69-.08 1.14-.191 1.341-.416.143-.138.161-.479.46-.601.612-.19 4.351.186 4.344.185 1.652.165 4.524.352 4.515.364.01-.013 3.197.16 4.355-.364l.971-15.523c-3.834-.063-17.141.583-17.141.6l-11.828-.509c.008-.001-4.396-.146-5.589-.275z" fill="#fff"/><path d="m8.661 19.85c1.165.501 4.265.461 4.251.463.13-.006 3.943-.31 4.112-.37.013.005 4.292-.351 4.85-.323.215.01.396.146.416.323.029.26.337.657 1.017.784.007.02 2.599.13 3.141.048.69-.08 1.14-.191 1.341-.416.143-.138.161-.479.46-.601.612-.19 4.351.186 4.344.185 1.652.165 4.524.352 4.515.364.01-.013 3.197.16 4.355-.364l.971-15.523c-3.834-.063-17.141.583-17.141.6l-11.828-.509c.008-.001-4.396-.146-5.589-.275z" fill="none" stroke="#b19672" stroke-miterlimit="3.864" stroke-width=".577"/><path d="m10.737 17.646.509-.186-.739-4.943z" fill="#b19672"/><path d="m10.737 17.646c1.154.525 4.213.179 4.204.185.009-.006-2.794-.032-3.973-.555z" fill="#b19672"/><path d="m11.892 16.817.37-.187-.647-4.99.277 5.174z" fill="#b19672"/><path d="m11.892 16.814c1.175.524 4.228.19 4.251.185-.023.006-2.746.022-3.927-.508z" fill="#b19672"/><path clip-rule="evenodd" d="m12.817 4.109c-.113-.014-1.881-.167-1.894-.185l.276.877h1.618z" fill="#fff" fill-rule="evenodd"/><path d="m12.817 4.109c-.113-.014-1.881-.167-1.894-.185l.276.877h1.618z" fill="none" stroke="#b19672" stroke-miterlimit="3.864" stroke-width=".319"/><path d="m39.613 17.923-.418-.37.464-5.405z" fill="#b19672"/><path d="m39.613 17.923c-1.154.525-4.37.064-4.389.046.019.019 2.816.1 3.971-.462z" fill="#b19672"/><path clip-rule="evenodd" d="m27.184 17.46c0-.002 4.433-.364 6.469.556-2.371-.474-6.073-.221-6.053-.23z" fill="#b19672" fill-rule="evenodd"/><path clip-rule="evenodd" d="m26.215 16.583c-.02.012 4.383-.477 6.469.6-2.662-.674-6.018-.265-6.007-.275z" fill="#b19672" fill-rule="evenodd"/><path d="m23.165 18.615c-.088.245-.006.741.555.787.024.001 2.381.154 2.586 0 .525-.188.647-.436.602-.694-.182-.798-1.572-1.788-1.895-1.801-.323.013-1.586.896-1.848 1.708" fill="#fff"/><path d="m23.165 18.615c-.088.245-.006.741.555.787.024.001 2.381.154 2.586 0 .525-.188.647-.436.602-.694-.182-.798-1.572-1.788-1.895-1.801-.323.013-1.586.896-1.848 1.708z" fill="none" stroke="#b19672" stroke-miterlimit="3.864" stroke-width=".29"/><path d="m41.646 16.721c-.016.01 1.035-1.368 2.123-.276-.002-.004.686.574 1.433-.093.014-.021.485-.947 1.664-.785-.529-2.153-1.657-1.733-1.664-1.756-.873.691-1.32.103-1.339.094-1.012-1.285-2.07.019-2.079 0z" fill="#fff"/><path d="m41.646 16.721c-.016.01 1.035-1.368 2.123-.276-.002-.004.686.574 1.433-.093.014-.021.485-.947 1.664-.785-.529-2.153-1.657-1.733-1.664-1.756-.873.691-1.32.103-1.339.094-1.012-1.285-2.07.019-2.079 0z" fill="none" stroke="#b19672" stroke-miterlimit="3.864" stroke-width=".404"/><path d="m25.109 17.099c.321.052.766.28.371.548-1.173.125-1.319.184-.371.369l.555.047c.012 0 .943.262.369.415-2.017.051-1.901.139-.784.323l.831.14c.003-.005.46.402-.369.507.157-.023.576 0 .6 0 .512-.189.594-.44.51-.693-.145-.805-1.309-1.739-1.618-1.755h-.185l-.461.184c.129-.021.255-.081.384-.093.046-.006.104-.003.168.008" fill="#b19672"/><path d="m42.893 14.827c-.072-.25.028-.522.231-.601.172-.05.376.118.461.37.044.292-.058.565-.231.646-.2.048-.405-.12-.461-.415" fill="#b19672"/><path d="m45.389 14.919c-.046-.178.031-.385.184-.461.152-.038.324.077.369.277.072.198-.002.406-.137.462-.171.059-.343-.057-.416-.278" fill="#b19672"/><path d="m42.246 13.488.277 2.171.138-2.356z" fill="#b19672"/><path d="m44.002 13.996.23 2.078.185-1.94z" fill="#b19672"/><path d="m32.938 3.369-1.709-.23-.693-.046c-3.471-.124-5.312 1.514-5.312 1.525-3.68-1.864-5.997-1.403-6.007-1.386-5.838 1.104-6.864-.018-6.883 0 .019-.018-.136 10.217 2.092 11.312.008-.006-1.224 2.69 2.62 1.762 4.948-1.259 8.073-.095 8.085-.092-.012-.003 2.847-.804 7.929.152-.019-.004 2.844.431 4.176-.384l.601-12.289c-.659.146-1.487.117-1.802.139-1.039-.021-2.342-.396-3.097-.463" fill="#fff"/><path d="m32.938 3.369-1.709-.23-.693-.046c-3.471-.124-5.312 1.514-5.312 1.525-3.68-1.864-5.997-1.403-6.007-1.386-5.838 1.104-6.864-.018-6.883 0 .019-.018-.136 10.217 2.092 11.312.008-.006-1.224 2.69 2.62 1.762 4.948-1.259 8.073-.095 8.085-.092-.012-.003 2.847-.804 7.929.152-.019-.004 2.844.431 4.176-.384l.601-12.289c-.659.146-1.487.117-1.802.139-1.039-.021-2.342-.396-3.097-.463z" fill="none" stroke="#b19672" stroke-miterlimit="3.864" stroke-width=".29"/><path d="m37.626 7.204c-.009-1.895-1.552-3.449-3.638-3.661.775.079 1.437 1.245 1.421 2.414 1.277-.023 2.208.542 2.217 1.247z" fill="none" stroke="#b19672" stroke-miterlimit="3.864" stroke-width=".29"/><path d="m25.194 4.54-.088 11.674" fill="none" stroke="#b19672" stroke-miterlimit="3.864" stroke-width=".29"/><path d="m15.543 16.537c-.267-.095-1.095-.216-1.618-.739-.242-.243-.63-.528-.785-1.524.013.018-.71-8.241-.693-8.548-.017.307.422 9.134.415 9.147.245 1.016.706 1.348 1.248 1.525 1.083.352 1.155.04 1.433.139" fill="#b19672"/><path d="m19.1 6.096.508-.417.462.463c-.163.094-.181.314-.185.324v2.217c.018-.008.064.298.462.461-.016-.017-.455.103-.6.37-.196-.213-.482-.346-.647-.416-.004-.018.297-.093.231-.462v-2.17c.003-.274-.015-.215-.231-.278z" fill="#b19672"/><path d="m20.994 8.498v-1.848c-.035-.263.218-.354.231-.369-.258-.15-.354-.251-.555-.462-.141.265-.453.405-.462.416.281.134.223.407.231.415v2.078c-.017.016-.054.255-.416.415-.02-.015.39.178.693.464.181-.242.499-.433.647-.51.021-.012-.264-.017-.369-.275z" fill="#b19672"/><path clip-rule="evenodd" d="m23.442 8.914v-1.849c-.014-.295.272-.315.278-.323-.175-.082-.5-.261-.694-.461-.147.254-.924.586-.924.6.801-.219.801.335.787.323v1.987c.007.013.066.424-.232.416-.012.008.28.146.416.416.206-.216.444-.331.6-.416.013-.005-.197.012-.231-.369z" fill="#b19672" fill-rule="evenodd"/><path d="m24.459 9.238v-1.848c-.04-.321.246-.342.231-.324-.154-.106-.415-.276-.601-.508-.155.286-.873.548-.877.555.769-.055.683.288.692.277v2.124c-.017-.012.045.316-.323.463-.014 0 .278.139.416.416.204-.223.645-.458.786-.555-.002-.014-.384-.077-.324-.324z" fill="#b19672"/><path clip-rule="evenodd" d="m21.318 6.604c.006.008.482-.099.739-.555v.139c.424.321.363.331.369.324v2.265c.001-.012-.103.396.277.554.002-.012-.255.207-.416.461-.18-.199-.506-.379-.693-.461.02-.008.277-.043.277-.37v-2.173c-.013-.31-.396-.178-.553-.091z" fill="#b19672" fill-rule="evenodd"/><path d="m10.091 4.987h-1.017l.694 13.628c1.159.524 3.77.418 3.788.416-.241.021 3.983-.344 4.25-.416-.014.001 3.771-.619 4.574.047" fill="none" stroke="#b19672" stroke-miterlimit="3.864" stroke-width=".29"/><path d="m39.936 5.218h1.017l-.739 13.583c-1.171.515-3.857.286-3.852.271-.006.016-2.606-.205-4.141-.409.02.003-3.223-.394-4.25.092" fill="none" stroke="#b19672" stroke-miterlimit="3.864" stroke-width=".29"/><path d="m38.734 16.861-.416-.231.416-4.713z" fill="#b19672"/><path d="m38.734 16.861c-1.784.914-5.06.247-5.082.23.022.017 3.529.307 4.758-.601z" fill="#b19672"/><path d="m11.305 4.611v.6l.894.046-.02-.83-.84.144z" fill="#fff"/><path d="m11.292 3.832-.561-.088.699 5.909z" fill="#b19672"/><path clip-rule="evenodd" d="m16.743 4.016c-.017.014-.088-.104 0-.091.923.236.687 1.078.694 1.063-.293.657-1.117.51-1.433.37v4.018c.257-.064.267 0 .416-.323-.016.001-.027-.293 0-.275.019-.018.177.288.185.321.01.494-.346.687-.555.786v.231c.1.345.217.529.601.277-.311-.326.295-.52.37-.186.133.71-.734.597-.786.601-.311-.107-.489-.2-.554-.831-1.625.217-2.152-1.302-2.172-1.294-.58-1.872 1.617-3.816 1.618-3.835-.17-.055-.258-.121-.253-.138-.005.017-1.031-.521-.579.785-.039.083-.068.075-.093.092-.036-.017-.058-.055-.092-.092-.067-.209-.396-1.243.694-1.339-.007-.013.565-.104 1.386.554.014-.017.673.419.831 0 .242-.357-.295-.681-.278-.694" fill="#b19672" fill-rule="evenodd"/><path clip-rule="evenodd" d="m14.433 6.65c.056-.216.295-1.27.832-1.617.351.168.255.195.278.185v4.157c-1.538-.137-1.459-1.652-1.11-2.725" fill="#fff" fill-rule="evenodd"/><path d="m30.003 9.977c.11-.203.256-.528.554-.509.267-.003.541.098.694.37 1.983-1.038 1.508-2.141.415-2.495.005.334-.377.367-.693.37-.173-.003-.45-.027-.554-.185-.247-.296-.14-.498-.14-.74.035-.034.498.239.74.186.832.211 1.321-.547 1.34-1.108-.019-.19-.199.092-.231.184-.5.985-1.325.158-1.339.139.014.02-.432.337-.926.51 0-.016-.547 1.084.232 1.755.008-.297.377-.416.693-.416.074 0 .604.122.738.23-.019-.014.652.457-.186 1.155-.395-.3-.322-.445-.785-.462-.461-.019-.697.288-.877.831z" fill="#b19672"/><path clip-rule="evenodd" d="m16.42 6.558c-.009.008.397-.099.647-.555.425.332.36.548.37.555v2.171c-.006.023-.041.304.323.463.018-.014-.301.234-.462.509-.181-.219-.43-.338-.6-.416.002-.011.229-.095.184-.462v-2.08c-.007-.311-.32-.18-.462-.092z" fill="#b19672" fill-rule="evenodd"/><path d="m18.453 8.498v-1.894c-.027-.306.188-.353.184-.368-.164-.073-.363-.236-.554-.462-.15.279-.427.451-.416.462.371.136.226.316.231.322v2.171c-.005.004-.04.317-.416.463-.006.001.325.063.647.416.217-.289.5-.484.647-.556.022-.019-.396-.097-.323-.416z" fill="#b19672"/><path d="m7.919 15.521h-.369c-.06.011-.114-.033-.139-.094l-.046-1.154c-.003-.067.046-.117.093-.14h.369c.048 0 .097-.049.092-.092l-.045-.554c.012-.056.061-.104.137-.092l.602-.048c.049 0 .103.045.092.094l.184 2.679c-.012.045-.061.094-.138.093l-.601.047c-.049-.01-.104-.055-.092-.092l-.047-.555z" fill="#fff"/><path d="m7.919 15.521h-.369c-.06.011-.114-.033-.139-.094l-.046-1.154c-.003-.067.046-.117.093-.14h.369c.048 0 .097-.049.092-.092l-.045-.554c.012-.056.061-.104.137-.092l.602-.048c.049 0 .103.045.092.094l.184 2.679c-.012.045-.061.094-.138.093l-.601.047c-.049-.01-.104-.055-.092-.092l-.047-.555z" fill="none" stroke="#b19672" stroke-miterlimit="3.864" stroke-width=".347"/><path d="m42.107 8.822.277.229c-.023.021 1.074.939 2.355-.092-.014.021 1.033-1.152 2.31-.924-1.11-2.282-2.161-1.734-2.171-1.755-1.271 1.402-2.633-.145-2.633-.14z" fill="#fff"/><path d="m42.107 8.822.277.229c-.023.021 1.074.939 2.355-.092-.014.021 1.033-1.152 2.31-.924-1.11-2.282-2.161-1.734-2.171-1.755-1.271 1.402-2.633-.145-2.633-.14z" fill="none" stroke="#b19672" stroke-miterlimit="3.864" stroke-width=".404"/><path d="m7.503 8.636h-.416c-.043.006-.098-.038-.092-.091l-.092-1.155c.013-.073.061-.124.139-.139h.323c.064-.007.112-.056.093-.093v-.554c-.019-.061.031-.11.092-.092l.6-.046c.066-.007.119.038.139.092l.138 2.681c.003.036-.045.086-.092.091l-.601.045c-.08-.015-.134-.06-.138-.137l-.046-.509z" fill="#fff"/><path d="m7.503 8.636h-.416c-.043.006-.098-.038-.092-.091l-.092-1.155c.013-.073.061-.124.139-.139h.323c.064-.007.112-.056.093-.093v-.554c-.019-.061.031-.11.092-.092l.6-.046c.066-.007.119.038.139.092l.138 2.681c.003.036-.045.086-.092.091l-.601.045c-.08-.015-.134-.06-.138-.137l-.046-.509z" fill="none" stroke="#b19672" stroke-miterlimit="3.864" stroke-width=".347"/><path d="m4.409 7.251c-.077-.648.431-1.117 1.062-1.155.662-.063 1.227.172 1.293.785.005.124-.149.402-.277.416-.102.004-.304-.178-.324-.277-.029-.41-.341-.443-.599-.37-.408.026-.576.293-.556.74.022-.021.154 1.363.185 1.478.018.394.221.671.647.646.403-.041.425-.541.416-.554-.001-.091.224-.18.323-.184.13-.015.336.118.324.367.04.634-.383.919-1.016.972-.661.051-1.3-.452-1.341-1.063-.031-.125-.148-1.766-.137-1.801" fill="#fff"/><path d="m4.409 7.251c-.077-.648.431-1.117 1.062-1.155.662-.063 1.227.172 1.293.785.005.124-.149.402-.277.416-.102.004-.304-.178-.324-.277-.029-.41-.341-.443-.599-.37-.408.026-.576.293-.556.74.022-.021.154 1.363.185 1.478.018.394.221.671.647.646.403-.041.425-.541.416-.554-.001-.091.224-.18.323-.184.13-.015.336.118.324.367.04.634-.383.919-1.016.972-.661.051-1.3-.452-1.341-1.063-.031-.125-.148-1.766-.137-1.801z" fill="none" stroke="#b19672" stroke-miterlimit="3.864" stroke-width=".303"/><path clip-rule="evenodd" d="m28.986 5.542c-.004.026.041 2.627.093 4.435-.028.28.077.226.276.322-.019-.003-.072-.01-.138.187-.27-.052-.37-.187-.37-.187-.002-.013.109.124-.185.278-.263-.021-.321-.091-.324-.092-.03-.04.269.061.278-.555.061-1.353-.036-3.652-.092-4.344z" fill="#b19672" fill-rule="evenodd"/><path d="m28.755 5.679c-1.735-.485-1.828 1.795-1.847 1.803.019-.008.335-.136.646-.185.594-.152.896-.271 1.154-.323.361-.087.148.518.139.508.01.01-.367-.02-1.109.14-.399.068-.756.142-.738.137-.079.608.471 1.816 1.432 1.941.651.092.965-.205 1.202-.603.021-.013.173.134.185.141-.012-.007-.32.88-1.387.877-1.83.039-2.566-.976-2.541-2.264-.036-1.235.699-2.883 2.864-2.494.11.021.457-.004.509-.231.108-.313-.127-.476-.322-.508-.349-.041-.08-.168.045-.187.872.019 1.435 1.595-.232 1.248" fill="#b19672"/><path d="m43.262 8.036c.014-.258.162-.479.323-.462.203-.017.351.204.371.462-.021.284-.167.503-.371.509-.161-.006-.31-.226-.323-.509" fill="#b19672"/><path d="m45.572 6.928c.13-.051.312.067.416.276.064.165.023.351-.094.417-.156.018-.338-.1-.414-.278-.093-.196-.052-.382.092-.415" fill="#b19672"/><path d="m42.708 6.558.046 2.171.416-1.941z" fill="#b19672"/><path d="m44.509 6.65.231 1.709.093-2.033z" fill="#b19672"/><path d="m10.275 4.109-.507.139.647 5.959z" fill="#b19672"/><path d="m19.192 10.901c.309-.147.425.186.416.276-.023.096-.124.186-.184.185-.104.048-.152.038-.232 0-.086-.036-.143-.165-.139-.23.01-.096.045-.184.139-.231" fill="#b19672"/><path d="m15.866 12.472c.053.091.132.05-.093.415-.099-.087-.193-.158-.23-.23-.148-.117-.222-.257-.324-.508.157.106.469.185.647.323" fill="#fff"/><path d="m35.73 10.623c.129-.09.278-.076.369 0 .104.08.176.242.141.37-.038.213-.295.227-.416.185-.065.005-.184-.059-.231-.185-.029-.175-.014-.311.137-.37" fill="#b19672"/><path d="m36.1 15.151c.129-.268.17-.48.094-.693-.088-.139-.283-.209-.416 0-.026.09-.049.287.185.369-.097.532-.741.249-.462-.323.229-.464.533-1.15.093-1.571-.618-.42-1.013.116-1.108.37-.058.1.09.257.185.094.052-.241.485-.579.74-.186.108.313-.161.643-.278.923-.173.345-.234.733 0 1.063.105.135.376.232.6.23.113-.036.233-.039.367-.276" fill="#b19672"/><path d="m33.006 8.96v-2.494c-.014-.021-.057-.055-.092-.047h-.417c0-.008.412-.277.786-1.339l.277.83c-.006.032.024.082.047.093l.599-.046-.276.462h-.322c-.039-.017-.049.014-.047.047l-.047 2.402c-.035.372.457.453.463.462-.17.083-.617.342-.787.554-.164-.268-.504-.412-.506-.416.375-.146.314-.484.322-.461z" fill="#b19672"/><path d="m26.491 11.086c-.084-.066-.549-1.558-.6-3.327.035-.009.541.119.507.185.203 1.722.666 2.975.693 3.188.063.09 1.152.918 1.525.878.313-.046.439-.153.462-.37.017-.29-.367-.437-.601-.046.107-.86.977-.462 1.016 0-.003.497-.381.712-.739.785-.812.178-1.319-.424-1.385-.462.009.104.696 1.405 1.062 1.571.131.064.562-.086.647-.232.062-.118.12-.328-.138-.369-.099-.019-.176.087-.232.14-.027.026-.012-.475.509-.277.148.101.212.208.231.369.004.248-.139.474-.324.6-.083.041-.198.146-.324.141.01.008.301.264.602.322.07-.069.146-.353.277-.322.062.02.549.042.555.092.045.045-.11.409-.047.416.162.036 1.174-.069 1.433-.14.423-.088.765-.572.832-.971.022-.171.008-.357-.14-.507-.039-.063-.119-.089-.185-.046-.065.016-.082.076-.046.184-.002.059-.262-.034-.416.186-.135.306.201.34.277.37.01.081-.152.127-.277.092-.229-.021-.411-.226-.369-.508.032-.308.32-.4.415-.417.03-.018-.024-.291.323-.368.046-.024.131-.013.139 0-.178-.219-.705-.49-1.016-.463-.25.005-.592.069-.555.416.063.274.291.34.323.322-.054-.068-.11-.137-.092-.229.065-.056.173-.063.276-.046.143-.018.138.262.093.321-.14.142-.238.14-.415.141-.137.006-.328-.124-.464-.324-.202-.473.144-.688.231-.739-.048-.108-.748-.174-.554-.277.163-.023.669.055.832.139.246-.068.177-.056.416-.047.067-.517.644-.553.923-.646.493-.165.713-.699.646-.415-.135.648-.653.725-.83.739-.074.035-.291.115-.324.416.085.018.218.067.277.092.074-.141.265-.316.416-.277.224.047-.104.313-.047.462.184.116.353.271.416.463.065.107.101.209.139.322.049-.041.27-.687.923-.925-.021-.059-.08-.274-.322-.23-.12.008-.083.053-.185.23-.049-.148-.051-.349.092-.415.127-.068.273-.065.415 0 .112.087.259.146.278.324.254-.025.535-.087.832-.046-.002-.185-.205-.37-.139-.416.193-.109.285.335.647.508.233.156.209.363.138.509-.066.063-.222.087-.23.093.061-.133.072-.248-.092-.37-.025-.029-.195-.109-.463-.093-.171.023-.556.168-.556.185.094.123.144.312 0 .462-.243.241-.388.12-.554 0-.383.271-.526.904-.553 1.247.285-.049.645-.186.922.187.151.163.304.641-.045.969-.166.131-.615.313-.926.324-.05-.021.801-.467.694-.785-.081-.105-.067-.25-.37-.278-.285-.031-.389-.003-.6.093-.194.086-.366.213-.51.323.119.118.293.502 0 .555-.261-.013-.441-.268-.554-.323-.735.133-1.138.173-1.802.092-.085.172-.201.083-.324.278-.085-.254-.107-.254-.275-.37-.313-.065-.392-.128-.647-.277-.036-.029-.427.276-.647.139.205.001.221-.217.231-.37-.052-.148-.212-.239-.323-.322-.143.07-.186.235-.138.369-.222.138-.759-.323-.647-.556.137.013.438-.09.461-.321.041-.266-.236-.38-.275-.418-.417.512-.854.425-1.479.232 1.324-.041 1.008-.826 1.063-.878l-.417-.092c.108-.102.235-.39.186-.37-.081-.015-.253-.146-.323-.187.013-.065.166-.026.141-.604" fill="#b19672"/><path d="m16.974 17.646c.002.018-.059.618-.092.878-.054.262-.489 1.548-.508 1.57.019-.022.506.321 1.339.923.11.048 1.494-.916 1.525-.923.04-.027-.825-1.461-.832-1.664.007-.404.027-.736.047-1.016-.02-.027-1.477.25-1.479.232" fill="#b19672"/><path d="m16.882 17.369c-.022.004.046.286 0 .554-.041.253-.499 1.315-.508 1.294.009.021.668.63 1.386 1.017.094.033 1.478-.924 1.524-.925.025-.034-.856-1.283-.878-1.478.022-.415.027-.485.047-.739-.02-.054-1.593.281-1.571.277" fill="#fff"/><path d="m16.882 17.369c-.022.004.046.286 0 .554-.041.253-.499 1.315-.508 1.294.009.021.668.63 1.386 1.017.094.033 1.478-.924 1.524-.925.025-.034-.856-1.283-.878-1.478.022-.415.027-.485.047-.739-.02-.054-1.593.281-1.571.277z" fill="none" stroke="#b19672" stroke-miterlimit="3.864" stroke-width=".347"/><path d="m16.19 17.831c.01-.013 1.835-.404 2.447-.416.604.012-.03-.683-.045-.694l-2.08.324z" fill="#fff"/><path d="m3.807 8.498c-.109-.004-.189-.362-.185-.415-.02-.068.054-.319.185-.324l2.634-.323c.144-.006.268.461.278.6.021.097-.043.536-.186.555z" fill="#fff"/><path d="m3.807 8.498c-.109-.004-.189-.362-.185-.415-.02-.068.054-.319.185-.324l2.634-.323c.144-.006.268.461.278.6.021.097-.043.536-.186.555z" fill="none" stroke="#b19672" stroke-miterlimit="3.864" stroke-width=".226"/><path d="m4.824 13.95c-.037-.615.487-1.066 1.155-1.11.629-.013 1.185.244 1.201.878.028.104-.135.376-.23.37-.134.016-.33-.173-.324-.277-.037-.404-.349-.448-.601-.414-.416.041-.594.302-.554.737-.013-.009.07 1.379.093 1.479.008.41.202.694.599.692.433-.036.473-.534.463-.554.003-.085.231-.166.369-.186.092.01.293.149.231.416.06.616-.373.888-1.016.925-.653.021-1.275-.505-1.294-1.155-.026-.087-.086-1.731-.092-1.801" fill="#fff"/><path d="m4.824 13.95c-.037-.615.487-1.066 1.155-1.11.629-.013 1.185.244 1.201.878.028.104-.135.376-.23.37-.134.016-.33-.173-.324-.277-.037-.404-.349-.448-.601-.414-.416.041-.594.302-.554.737-.013-.009.07 1.379.093 1.479.008.41.202.694.599.692.433-.036.473-.534.463-.554.003-.085.231-.166.369-.186.092.01.293.149.231.416.06.616-.373.888-1.016.925-.653.021-1.275-.505-1.294-1.155-.026-.087-.086-1.731-.092-1.801z" fill="none" stroke="#b19672" stroke-miterlimit="3.864" stroke-width=".303"/><path d="m4.223 15.289c-.118.016-.238-.293-.23-.37-.019-.044.107-.345.23-.368l2.727-.277c.114-.034.229.495.23.6.022.134-.057.511-.185.509z" fill="#fff"/><path d="m4.223 15.289c-.118.016-.238-.293-.23-.37-.019-.044.107-.345.23-.368l2.727-.277c.114-.034.229.495.23.6.022.134-.057.511-.185.509z" fill="none" stroke="#b19672" stroke-miterlimit="3.864" stroke-width=".226"/><path d="m22.98 17.323c.006.014-3.427-.523-6.329.415 3.209-.431 5.938-.092 5.96-.092z" fill="#b19672"/><path d="m17.114 14.643c-.149-.108-.302-.212-.462-.303-.057-.032-.115-.063-.174-.092-.045-.022-.097-.055-.146-.064.015.028.018.059.025.089.022.088.013.165-.025.249-.017.036-.041.072-.071.101-.027.026-.063.059-.098.075-.033.015-.07.02-.104.028-.01.002-.101.011-.1.01.018-.046.201-.127 0-.277-.264.03-.502-.166-.463-.416.056.047.134.13.231.139.094-.08.172-.122.092-.276-.034-.146-.107-.228-.323-.324-.097-.004-.343.091-.324-.046.012-.06.147-.171.093-.278-.411-.379-1.063-1.606-1.385-2.448-.18-.579-.224-.86-.371-1.478-.021-.217-.088-1.285.047-1.479.005-.006.302.002.324 0 .012.091-.055.67.092 1.155.372 1.242.582 1.979.832 2.355.1.109.181.44.368.462.097.015.135-.124.231-.092.131.019.059.191.14.23.086.092.128.086.323.186.258.127.463-.062.508-.048.042-.01.132-.033.138.048-.009.17.006.195.046.276.106.116.389.244.693.185.185-.055.547-.168.509-.509-.068-.138-.093-.228-.323-.229-.051-.013-.129-.014-.186.046.015.066.047.11.047.139-.019.084-.028.15-.184.139-.154.002-.213-.112-.232-.185-.026-.156.139-.313.369-.37.354-.045.552.025.694.185.445.721-.435 1.05-.6 1.063.015-.008.082.266.137.369.01.05-.037.057-.092.047.019.013-.518-.265-.6-.324-.181-.064-.437-.149-.463-.184-.088.121-.134.198-.184.323-.019.058-.091.14-.047.185.261.245.538.414.878.556.059-.024.13-.035.185-.095.086-.057.167-.168.139-.275.007-.031.067-.013.092 0 .356.242-.031.469 0 .508.143.026.822-.021.97-.138l.185-.187c.029-.012.208.016.231.046.073.074.009.16 0 .232.263.021.702-.086.924-.37.185-.265.278-.706.185-1.063-.05-.166-.116-.352-.324-.416-.117-.052-.379-.102-.6.141-.104.131-.074.355.047.415-.01.007.019-.104.184-.14.259.024.24.302.092.37-.054.033-.161.06-.369-.047-.127-.106-.212-.256-.231-.415.024-.102.037-.521.6-.646.307-.033.299.013.463 0-.003-.206.07-.495.461-.555-.188.328-.027.709.231.971.104.158.145.318.185.509.076-.089.169-.248.278-.416.233-.27.352-.336.646-.555.29-.146.176-.432-.092-.509-.156-.019-.325-.021-.416.094-.197.097-.1.528-.093.554.007.027-.152-.117-.184-.37 0-.176.15-.469.369-.508.254-.054.605-.026.786.185.099.053.141.187.139.276-.022.018.601-.128.923-.092.137-.097.304-.17.462-.139.232.018-.068.238-.046.23.344.114.594.375.648.694.131.028.312.066.323.185.043.219-.189.157-.278.139.116.545-.096.99-.138 1.017.218.051.456.146.554.275.055.145.013.178 0 .232-.083.038-.133-.036-.185-.046-.135-.107-.319-.166-.462-.187-.105.054-.198.074-.277.141-.169.042-.172.237-.139.462.086.115.056.174 0 .185-.078 0-.126-.047-.185-.093-.047-.098-.087-.102-.137-.324-.045.059-.417.232-.694.277-.341.065-.555-.037-.555-.045.561-.08.961-.271 1.155-.556-.308.06-.585.104-.877-.184-.159-.151-.148-.429-.047-.601.12-.169.302-.264.509-.277.144-.003.271.068.323.138.087.13.055.274-.045.369-.07.063-.173.073-.278 0-.022-.03-.063-.084-.046-.138.01-.07.094-.146.092-.14-.045-.031-.128-.017-.184 0-.17.1-.271.247-.14.464.128.223.748.255 1.109-.094.299-.296.283-.671.231-1.016-.467.339-.536.095-.461.046.048-.068.357-.202.23-.462-.041-.129-.268-.176-.369-.185-.355-.048-.654-.001-.924.139.075.021.183.042.231.092.101.144.057.278 0 .37-.1.13-.254.192-.278.184.091-.122.072-.323-.045-.416-.071-.047-.183-.038-.278 0-.167.125-.228.214-.323.324-.08.148.013.227.046.278.051.122.098.187.092.275-.01.06-.078.152-.138.048-.037-.092-.121-.149-.231-.187-.043.124-.231.536-.415.74.455-.097.65.026.784.278.095.148.006.202-.046.138-.102-.104-.305-.165-.462-.138-.219.009-.387.17-.6.138-.121.066-.399.287-.463.277.1.125.099.16.14.277.008.036.055.209.045.231-.081-.028-.499-.256-.693-.324-.021.019-.704.165-.739.185-.085-.024.106.049.139.14.037.052.175.217-.093.276-.051.014-.253-.041-.23-.093.034-.104-.074-.261-.186-.323-.12-.015-.514-.005-.831-.046.022.006.175.142-.046.416-.355.295-.666.075-.831 0-.179-.059.449.156.416-.368" fill="#b19672"/><path clip-rule="evenodd" d="m37.811 4.063 1.248-.092-.047.461h1.201l-.046.786-2.448.046z" fill="#fff" fill-rule="evenodd"/><path d="m38.734 3.971.555-.046-.646 5.682z" fill="#b19672"/><path d="m39.889 4.387h.416l-.508 5.59z" fill="#b19672"/><path d="m37.693 6.559.118-2.45 1.154-.138v.507l1.155-.046-.045.786" fill="none" stroke="#b19672" stroke-miterlimit="3.864" stroke-width=".233"/><path clip-rule="evenodd" d="m23.812 16.444c-.022-.005-4.284-.534-6.33.463 2.462-.473 5.9-.113 5.914-.093z" fill="#b19672" fill-rule="evenodd"/><path d="m25.244 68.789c-5.311-2.009-10.978-4.806-15.939-10.904.731.351 3.003 1.334 3.373 1.571l-3.927-5.866 5.913 4.573c-.201-.74-.412-.972-1.339-2.172-.439-.57-.784-2.729-1.155-3.188-1.401-1.729-2.428-2.195-3.141-3.327-.713-1.073-.185-2.764-2.542-5.451 1.66.555 2.526 1.674 3.65 4.344.336.764 3.122 2.23 4.019 4.25.5 1.1 1.131 3.05 2.542 3.788l-8.733-18.017 10.535 16.03c-1.132-2.278-.614-5.383-1.572-7.067-1.116-2.002-1.809-2.583-2.633-4.157-.649-1.291.337-5.968-1.664-8.778 1.029.488 1.938 1.945 2.31 2.818.388.9.768 4.027 1.341 5.358.526 1.289 1.772 2.388 2.633 3.696.772 1.12 1.714 6.585 1.987 6.744l-2.08-23.422c.003.011 4.954 22.898 5.036 22.914.298-1.737-.078-2.605-.277-3.973-.372-2.664 1.149-4.798 1.062-7.438-.083-1.668-.698-2.473-.739-4.112-.041-1.804 1.628-4.931 1.618-5.591.01-.398-.137-1.557-.416-2.032.998.348 1.263 1.424 1.292 1.802.147 1.589-.76 3.723-.553 5.729.176 1.621 1.102 2.53 1.247 4.158.217 2.668-1.411 4.123-.693 7.53.254 1.334.683 2.138.74 3.927l5.405-22.361c-.021-.003-2.585 22.875-2.541 22.916.728-2.156 2.565-4.036 2.817-5.729.318-2.276.121-3.16.416-4.897.283-1.432 3.912-4.54 4.066-7.993.491 1.02.324 2.729.092 3.651-.246.946-1.849 3.659-2.218 5.035-.354 1.369.024 3.006-.138 4.527-.318 3.156-2.941 3.508-2.368 6.205l9.806-15.398-7.576 17.74c.358-.635 3.221-2.541 3.742-3.51 1.032-1.973.928-2.799 1.662-3.927.885-1.406 3.678-1.607 4.159-4.897.785 3.143-.587 3.211-2.634 5.313-.789.801-.895 3.801-2.217 5.313-.86.941-2.676 1.891-2.727 3.835l5.452-4.48-4.021 5.544c.437-.2 1.979-.796 2.496-1.11-4.772 5.622-10.408 8.529-15.568 10.486" fill="#b19672"/><path d="m25.244 68.789c-5.311-2.009-10.978-4.806-15.939-10.904.731.351 3.003 1.334 3.373 1.571l-3.927-5.866 5.913 4.573c-.201-.74-.412-.972-1.339-2.172-.439-.57-.784-2.729-1.155-3.188-1.401-1.729-2.428-2.195-3.141-3.327-.713-1.073-.185-2.764-2.542-5.451 1.66.555 2.526 1.674 3.65 4.344.336.764 3.122 2.23 4.019 4.25.5 1.1 1.131 3.05 2.542 3.788l-8.733-18.017 10.535 16.03c-1.132-2.278-.614-5.383-1.572-7.067-1.116-2.002-1.809-2.583-2.633-4.157-.649-1.291.337-5.968-1.664-8.778 1.029.488 1.938 1.945 2.31 2.818.388.9.768 4.027 1.341 5.358.526 1.289 1.772 2.388 2.633 3.696.772 1.12 1.714 6.585 1.987 6.744l-2.08-23.422c.003.011 4.954 22.898 5.036 22.914.298-1.737-.078-2.605-.277-3.973-.372-2.664 1.149-4.798 1.062-7.438-.083-1.668-.698-2.473-.739-4.112-.041-1.804 1.628-4.931 1.618-5.591.01-.398-.137-1.557-.416-2.032.998.348 1.263 1.424 1.292 1.802.147 1.589-.76 3.723-.553 5.729.176 1.621 1.102 2.53 1.247 4.158.217 2.668-1.411 4.123-.693 7.53.254 1.334.683 2.138.74 3.927l5.405-22.361c-.021-.003-2.585 22.875-2.541 22.916.728-2.156 2.565-4.036 2.817-5.729.318-2.276.121-3.16.416-4.897.283-1.432 3.912-4.54 4.066-7.993.491 1.02.324 2.729.092 3.651-.246.946-1.849 3.659-2.218 5.035-.354 1.369.024 3.006-.138 4.527-.318 3.156-2.941 3.508-2.368 6.205l9.806-15.398-7.576 17.74c.358-.635 3.221-2.541 3.742-3.51 1.032-1.973.928-2.799 1.662-3.927.885-1.406 3.678-1.607 4.159-4.897.785 3.143-.587 3.211-2.634 5.313-.789.801-.895 3.801-2.217 5.313-.86.941-2.676 1.891-2.727 3.835l5.452-4.48-4.021 5.544c.437-.2 1.979-.796 2.496-1.11-4.772 5.622-10.408 8.529-15.568 10.486z" fill="none" stroke="#b19672" stroke-miterlimit="3.864" stroke-width=".003"/><path clip-rule="evenodd" d="m1.359 26.563v-.879c.995.354 2.813.558 3.834.556 1.095.002 5.741-.761 7.438-.785 1.727-.06 4.515.787 5.869.785 1.349.002 5.427-.855 6.744-.831 1.302-.024 5.379.833 6.746.831 1.338.002 4.126-.845 5.867-.785 1.682.024 6.328.787 7.438.785 1.007.002 2.887-.228 3.881-.556v.785c-.994.353-2.874.58-3.881.603-1.109-.022-5.756-.783-7.438-.832-1.741-.035-4.529.81-5.867.832-1.367-.022-5.444-.877-6.746-.878-1.317.001-5.395.855-6.744.878-1.354-.022-4.142-.867-5.869-.832-1.697.049-6.343.81-7.438.832-1.021-.022-2.839-.225-3.834-.556z" fill="#b19672" fill-rule="evenodd"/><path d="m1.359 26.563v-.879c.995.354 2.813.558 3.834.556 1.095.002 5.741-.761 7.438-.785 1.727-.06 4.515.787 5.869.785 1.349.002 5.427-.855 6.744-.831 1.302-.024 5.379.833 6.746.831 1.338.002 4.126-.845 5.867-.785 1.682.024 6.328.787 7.438.785 1.007.002 2.887-.228 3.881-.556v.785c-.994.353-2.874.58-3.881.603-1.109-.022-5.756-.783-7.438-.832-1.741-.035-4.529.81-5.867.832-1.367-.022-5.444-.877-6.746-.878-1.317.001-5.395.855-6.744.878-1.354-.022-4.142-.867-5.869-.832-1.697.049-6.343.81-7.438.832-1.021-.022-2.839-.225-3.834-.556z" fill="none" stroke="#b19672" stroke-miterlimit="3.864" stroke-width=".029"/><path clip-rule="evenodd" d="m1.359 32.522v.046c.995.319 2.813.522 3.834.509 1.095.014 5.741-.748 7.438-.786 1.727-.045 4.515.8 5.869.786 1.349.014 5.427-.842 6.744-.833 1.302-.009 5.379.847 6.746.833 1.338.014 4.126-.831 5.867-.786 1.682.038 6.328.8 7.438.786 1.007.014 2.887-.214 3.881-.555v-.786c-.994.316-2.874.546-3.881.555-1.109-.009-5.756-.77-7.438-.832-1.741-.021-4.529.823-5.867.832-1.367-.009-5.444-.865-6.746-.878-1.317.013-5.395.869-6.744.878-1.354-.009-4.142-.854-5.869-.832-1.697.063-6.343.823-7.438.832-1.021-.009-2.839-.212-3.834-.555v-.045z" fill="#b19672" fill-rule="evenodd"/><path d="m1.359 32.522v.046c.995.319 2.813.522 3.834.509 1.095.014 5.741-.748 7.438-.786 1.727-.045 4.515.8 5.869.786 1.349.014 5.427-.842 6.744-.833 1.302-.009 5.379.847 6.746.833 1.338.014 4.126-.831 5.867-.786 1.682.038 6.328.8 7.438.786 1.007.014 2.887-.214 3.881-.555v-.786c-.994.316-2.874.546-3.881.555-1.109-.009-5.756-.77-7.438-.832-1.741-.021-4.529.823-5.867.832-1.367-.009-5.444-.865-6.746-.878-1.317.013-5.395.869-6.744.878-1.354-.009-4.142-.854-5.869-.832-1.697.063-6.343.823-7.438.832-1.021-.009-2.839-.212-3.834-.555v-.045z" fill="none" stroke="#b19672" stroke-miterlimit="3.864" stroke-width=".029"/><path d="m49.176 36.356c-1.02.342-2.874.572-3.881.555-1.109.018-5.756-.743-7.438-.785-1.741-.042-4.529.803-5.867.785-1.367.018-5.444-.837-6.746-.831-1.317-.006-5.395.849-6.744.831-1.354.018-4.142-.827-5.869-.785-1.697.042-6.343.803-7.438.785-1.021.018-2.814-.155-3.834-.508v.832c1.02.332 2.813.503 3.834.508 1.095-.005 5.741-.767 7.438-.785 1.727-.064 4.515.78 5.869.785 1.349-.005 5.427-.86 6.744-.879 1.302.019 5.379.874 6.746.879 1.338-.005 4.126-.85 5.867-.785 1.682.019 6.328.78 7.438.785 1.007-.005 2.861-.236 3.881-.556z" fill="#b19672"/><path d="m49.176 36.356c-1.02.342-2.874.572-3.881.555-1.109.018-5.756-.743-7.438-.785-1.741-.042-4.529.803-5.867.785-1.367.018-5.444-.837-6.746-.831-1.317-.006-5.395.849-6.744.831-1.354.018-4.142-.827-5.869-.785-1.697.042-6.343.803-7.438.785-1.021.018-2.814-.155-3.834-.508v.832c1.02.332 2.813.503 3.834.508 1.095-.005 5.741-.767 7.438-.785 1.727-.064 4.515.78 5.869.785 1.349-.005 5.427-.86 6.744-.879 1.302.019 5.379.874 6.746.879 1.338-.005 4.126-.85 5.867-.785 1.682.019 6.328.78 7.438.785 1.007-.005 2.861-.236 3.881-.556z" fill="none" stroke="#b19672" stroke-miterlimit="3.864" stroke-width=".029"/><path d="m48.714 43.333c-.897.24-2.562.447-3.419.461-1.109-.014-5.756-.775-7.438-.831-1.741-.028-4.529.817-5.867.831-1.367-.014-5.444-.869-6.746-.877-1.317.008-5.395.863-6.744.877-1.354-.014-4.142-.859-5.869-.831-1.697.056-6.343.817-7.438.831-.821-.014-2.285-.151-3.187-.368-.115-.397-.188-.832-.185-.832.898.229 2.499.377 3.372.369 1.095.008 5.741-.753 7.438-.785 1.727-.052 4.515.793 5.869.785 1.349.008 5.427-.847 6.744-.832 1.302-.015 5.379.84 6.746.832 1.338.008 4.126-.837 5.867-.785 1.682.032 6.328.793 7.438.785.857.008 2.521-.198 3.419-.416z" fill="#b19672"/><path d="m48.714 43.333c-.897.24-2.562.447-3.419.461-1.109-.014-5.756-.775-7.438-.831-1.741-.028-4.529.817-5.867.831-1.367-.014-5.444-.869-6.746-.877-1.317.008-5.395.863-6.744.877-1.354-.014-4.142-.859-5.869-.831-1.697.056-6.343.817-7.438.831-.821-.014-2.285-.151-3.187-.368-.115-.397-.188-.832-.185-.832.898.229 2.499.377 3.372.369 1.095.008 5.741-.753 7.438-.785 1.727-.052 4.515.793 5.869.785 1.349.008 5.427-.847 6.744-.832 1.302-.015 5.379.84 6.746.832 1.338.008 4.126-.837 5.867-.785 1.682.032 6.328.793 7.438.785.857.008 2.521-.198 3.419-.416z" fill="none" stroke="#b19672" stroke-miterlimit="3.864" stroke-width=".029"/><path d="m47.328 48.277.23-.832c-.525.07-1.549.07-2.264.045-1.109-.036-5.756-.76-7.438-.784-1.741-.06-4.529.785-5.867.784-1.367.001-5.444-.854-6.746-.877-1.317.022-5.395.878-6.744.877-1.354.001-4.142-.844-5.869-.784-1.697.024-6.343.785-7.438.784-.513.001-1.636-.012-2.171-.091l.323.831c.579.059 1.423.069 1.848.092 1.095-.022 5.741-.782 7.438-.832 1.727-.035 4.515.81 5.869.832 1.349-.022 5.427-.877 6.744-.877 1.302 0 5.379.854 6.746.877 1.338-.022 4.126-.867 5.867-.832 1.682.05 6.328.772 7.438.832.631 0 1.503.002 2.079-.045z" fill="#b19672"/><path d="m47.328 48.277.23-.832c-.525.07-1.549.07-2.264.045-1.109-.036-5.756-.76-7.438-.784-1.741-.06-4.529.785-5.867.784-1.367.001-5.444-.854-6.746-.877-1.317.022-5.395.878-6.744.877-1.354.001-4.142-.844-5.869-.784-1.697.024-6.343.785-7.438.784-.513.001-1.636-.012-2.171-.091l.323.831c.579.059 1.423.069 1.848.092 1.095-.022 5.741-.782 7.438-.832 1.727-.035 4.515.81 5.869.832 1.349-.022 5.427-.877 6.744-.877 1.302 0 5.379.854 6.746.877 1.338-.022 4.126-.867 5.867-.832 1.682.05 6.328.772 7.438.832.631 0 1.503.002 2.079-.045z" fill="none" stroke="#b19672" stroke-miterlimit="3.864" stroke-width=".029"/><path clip-rule="evenodd" d="m44.509 54.236c-1.889-.203-5.079-.68-6.651-.693-1.741-.023-4.529.8-5.867.786-1.367.014-5.444-.843-6.746-.833-1.317-.01-5.395.847-6.744.833-1.354.014-4.142-.832-5.869-.786-1.216.027-4.452.425-6.375.646l-.461-.738c1.828-.212 5.514-.688 6.836-.739 1.727-.024 4.515.821 5.869.831 1.349-.01 5.427-.865 6.744-.878 1.302.013 5.379.868 6.746.878 1.338-.01 4.126-.831 5.867-.831 1.656.037 5.108.564 6.93.784l-.323.787z" fill="#b19672" fill-rule="evenodd"/><g fill="none"><path d="m44.509 54.236c-1.889-.203-5.079-.68-6.651-.693-1.741-.023-4.529.8-5.867.786-1.367.014-5.444-.843-6.746-.833-1.317-.01-5.395.847-6.744.833-1.354.014-4.142-.832-5.869-.786-1.216.027-4.452.425-6.375.646l-.461-.738c1.828-.212 5.514-.688 6.836-.739 1.727-.024 4.515.821 5.869.831 1.349-.01 5.427-.865 6.744-.878 1.302.013 5.379.868 6.746.878 1.338-.01 4.126-.831 5.867-.831 1.656.037 5.108.564 6.93.784l-.323.787z" stroke="#b19672" stroke-miterlimit="3.864" stroke-width=".029"/><path d="m1.959 2.308h46.523v19.357h-46.523z" stroke="#b19672" stroke-miterlimit="3.864" stroke-width=".205"/><path d="m41.646 16.721c-.016.01.957-1.436 2.047-.345-.004-.004.762.643 1.509-.024.014-.021.485-.947 1.664-.785-.529-2.153-1.657-1.733-1.664-1.756-.873.691-1.32.103-1.339.094-1.012-1.285-2.07.019-2.079 0z" stroke="#b19672" stroke-miterlimit="3.864" stroke-width=".407"/><path d="m42.107 8.822.277.229c-.023.021 1.182.849 2.463-.183-.013.02.926-1.062 2.202-.833-1.11-2.282-2.161-1.734-2.171-1.755-1.271 1.402-2.633-.145-2.633-.14z" stroke="#b19672" stroke-miterlimit="3.864" stroke-width=".407"/><path d="m37.811 4.109v-.416c-.658.146-1.488.117-1.802.139-1.038-.021-2.341-.396-3.095-.463l-1.71-.23-.692-.046c-3.472-.124-5.313 1.514-5.313 1.525-3.68-1.864-5.997-1.403-6.007-1.386-5.838 1.104-6.908-.009-6.884 0-.022-.008.016.295 0 .83" stroke="#b19672" stroke-miterlimit="3.864" stroke-width=".293"/><path d="m12.308 4.063c-.325-.029-.744-.065-1.016-.092" stroke="#b19672" stroke-miterlimit="3.864" stroke-width=".322"/><path d="m16.42 19.956c-.012.072-.027.116-.046.139.019-.022.506.321 1.339.923.11.048 1.494-.916 1.525-.923.012-.014-.078-.184-.185-.416" stroke="#b19672" stroke-miterlimit="3.864" stroke-width=".029"/><path d="m38.734 3.971.555-.046-.046.553" stroke="#b19672" stroke-miterlimit="3.864" stroke-width=".029"/><path d="m5.055 7.621 1.386-.186c.144-.005.268.462.278.601.021.097-.043.536-.186.555l-1.385-.046" stroke="#b19672" stroke-miterlimit="3.864" stroke-width=".229"/><path d="m4.5 8.498h-.693c-.109-.004-.189-.362-.185-.415-.02-.068.054-.319.185-.324l.647-.092" stroke="#b19672" stroke-miterlimit="3.864" stroke-width=".229"/><path d="m5.471 14.411 1.479-.138c.114-.034.229.495.23.6.022.134-.057.511-.185.509l-1.478-.046" stroke="#b19672" stroke-miterlimit="3.864" stroke-width=".229"/><path d="m4.916 15.336-.693-.047c-.118.016-.238-.293-.23-.37-.019-.044.107-.345.23-.368l.647-.047" stroke="#b19672" stroke-miterlimit="3.864" stroke-width=".229"/><path d="m8.058 9.33-.324.045c-.08-.015-.134-.06-.138-.137l-.046-.509-.047-.093h-.416c-.043.006-.098-.038-.092-.091l-.092-1.155c.013-.073.061-.124.139-.139h.323c.064-.007.112-.056.093-.093v-.554c-.019-.061.031-.11.092-.092l.369-.046" stroke="#b19672" stroke-miterlimit="3.864" stroke-width=".35"/><path d="m8.427 16.214-.277.046c-.049-.01-.104-.055-.092-.092l-.047-.555-.092-.092h-.369c-.06.011-.114-.033-.139-.094l-.046-1.154c-.003-.067.046-.117.093-.14h.369c.048 0 .097-.049.092-.092l-.045-.554c.012-.056.061-.104.137-.092l.278-.048" stroke="#b19672" stroke-miterlimit="3.864" stroke-width=".35"/><path d="m37.811 4.109 1.154-.138" stroke="#b19672" stroke-miterlimit="3.864" stroke-width=".236"/><path d="m4.409 7.667c0-.229-.014-.415 0-.416-.077-.648.431-1.117 1.062-1.155.662-.063 1.227.172 1.293.785.005.124-.149.402-.277.416-.102.004-.304-.178-.324-.277-.029-.41-.341-.443-.599-.37-.408.026-.576.293-.556.74.022-.021.031.074.047.231" stroke="#b19672" stroke-miterlimit="3.864" stroke-width=".306"/><path d="m5.148 8.498c.008.197.021.33.045.37.018.394.221.671.647.646.403-.041.425-.541.416-.554-.001-.091.224-.18.323-.184.13-.015.336.118.324.367.04.634-.383.919-1.016.972-.661.051-1.3-.452-1.341-1.063-.024-.057-.04-.279-.046-.554" stroke="#b19672" stroke-miterlimit="3.864" stroke-width=".306"/><path d="m4.824 14.504c.011-.295.004-.516 0-.554-.037-.615.487-1.066 1.155-1.11.629-.013 1.185.244 1.201.878.028.104-.135.376-.23.37-.134.016-.33-.173-.324-.277-.037-.404-.349-.448-.601-.414-.416.041-.594.302-.554.737-.013-.009-.005.112 0 .277" stroke="#b19672" stroke-miterlimit="3.864" stroke-width=".306"/><path d="m5.517 15.336c.022.146.029.255.047.277.008.41.202.694.599.692.433-.036.473-.534.463-.554.003-.085.231-.166.369-.186.092.01.293.149.231.416.06.616-.373.888-1.016.925-.653.021-1.275-.505-1.294-1.155-.021-.016-.029-.203-.046-.463" stroke="#b19672" stroke-miterlimit="3.864" stroke-width=".306"/><path d="m10.783 4.387c-1.168-.057-2.415-.117-2.956-.185l.786 15.615c1.165.501 4.263.454 4.249.462.014-.008 2.398-.191 3.558-.277" stroke="#b19672" stroke-miterlimit="3.864" stroke-width=".581"/><path d="m19.053 19.679c1.188-.122 2.479-.131 2.772-.093.247.032.397.146.416.323.029.26.337.659 1.016.785.01.019 2.601.129 3.142.047.689-.081 1.141-.191 1.34-.415.146-.139.162-.479.463-.602.609-.19 4.349.186 4.343.185 1.638.206 4.759.463 4.759.463s2.953.062 4.111-.463l.971-15.522c-.742-.005-1.955.001-3.246.039" stroke="#b19672" stroke-miterlimit="3.864" stroke-width=".581"/><path d="m40.213 18.801c-1.171.515-4.011.286-3.852.271.16-.016-2.606-.205-4.141-.409" stroke="#b19672" stroke-miterlimit="3.864" stroke-width=".29"/></g><path d="m25.052 16.026-.108.273.162.076.135-.043.065-.232z" fill="#b19672"/><path d="m14.385 14.371.257.12-.129.209-.144-.184z" fill="#b19672"/><path d="m8.482 14.965h.385v1.219h-.385z" fill="#b19672"/><path d="m16.249 19.088-.079.131.059.092.118.007.067-.171z" fill="#b19672"/><path d="m16.361 19.719.19-.013-.184.105z" fill="#b19672"/><path d="m25.329 70.121.186.064.169-.055-.133-.141z" fill="#b19672"/></svg>